<svg xmlns="http://www.w3.org/2000/svg" viewBox="0 0 73.28 84.88"><defs><style>.cls-1{fill:#edf2d4;}</style></defs><title>Recurso 24</title><g id="Capa_2" data-name="Capa 2"><g id="Capa_7" data-name="Capa 7"><path class="cls-1" d="M60.44,19.05,56,18.93C54.45,12,49.88,7.27,44.15,3.35c0,.23,0,.38,0,.52q-.13,5.2-.24,10.41a.64.64,0,0,0,.26.43c1.26.91,2.54,1.81,3.82,2.7a.67.67,0,0,1,.31.63c-.06,1.64-.08,3.28-.13,4.92a.43.43,0,0,0,.32.5,4.24,4.24,0,0,1,2.09,1.81,4.41,4.41,0,0,1-1.32,5.83,4.35,4.35,0,1,1-3.92-7.7c.31-.11.36-.26.36-.55,0-1.16,0-2.31.09-3.47a.74.74,0,0,0-.35-.73Q43.49,17.33,41.62,16a.59.59,0,0,1-.24-.4q0-3,.12-5.93c.06-2.51.12-5,.17-7.54a.42.42,0,0,0-.18-.35c-1-.58-2.1-1.13-3.2-1.72,0,.2,0,.33,0,.46Q38.11,7.7,38,14.89c0,1.24-.08,2.47-.12,3.71,0,.22,0,.41.27.49A3.7,3.7,0,0,1,40,20.57a4.34,4.34,0,1,1-5-1.55.39.39,0,0,0,.31-.42c0-2.42.1-4.84.16-7.26l.21-8.58c0-.9.07-1.8.11-2.69L35.71,0c-1.13.55-2.27,1.09-3.4,1.65a.45.45,0,0,0-.18.36c0,.69,0,1.39-.06,2.09-.1,4.18-.19,8.36-.3,12.54a.94.94,0,0,1-.26.58c-1.29,1.09-2.59,2.14-3.88,3.22a.8.8,0,0,0-.25.5c-.06,1.73-.09,3.47-.14,5.2a.38.38,0,0,0,.28.44,4.24,4.24,0,0,1,2.09,1.76,4.35,4.35,0,0,1-5.95,6,4.35,4.35,0,0,1,.75-7.81.46.46,0,0,0,.36-.48c0-2.07.08-4.14.15-6.21a.84.84,0,0,1,.26-.58q1.89-1.61,3.82-3.17a.75.75,0,0,0,.32-.64l.24-10.36c0-.64,0-1.27,0-1.91l-.13-.07c-1.35,1-2.73,1.94-4.07,2.95A24.61,24.61,0,0,0,20.62,11a20,20,0,0,0-3.35,6.73c-.09.32-.22.43-.55.41-.77,0-1.53,0-2.3-.06L12.81,18V2.25H9.19l.08,11.9c0,1.12,0,2.23-.06,3.35,0,1.32-.07,2.65-.11,4.07l7.43.15-.15,7.33c-1.8,0-3.61-.1-5.43-.11a1.48,1.48,0,0,1-1.15-.5c-2.41-2.41-7.29-7.2-7.29-7.2L0,23.76,2.2,26l6.37,6.3a.8.8,0,0,0,.48.23q2.47.08,4.95.12h2.27c0,1.9-.07,3.69-.1,5.59-.31,0-.6-.08-.89-.09l-5.44-.17a.68.68,0,0,0-.66.34c-.86,1.31-1.75,2.6-2.64,3.9C5.45,43.78,4.35,45.39,3.27,47c-.59.87,2.35,2.87,2.94,2.05s1-1.44,1.47-2.16c1.13-1.67,2.25-3.35,3.39-5a.75.75,0,0,1,.49-.31c.91,0,1.83,0,2.74,0,.6,0,1.2,0,1.87-.06-.06,1.83-.12,3.49-.17,5.13l39.89.94c0-1.64,0-3.31.06-5.08,1.27.05,2.49.17,3.7.12a1.72,1.72,0,0,1,1.76,1c1.34,2.29,2.76,4.54,4.15,6.81.26.43,3.38-1.3,3-2s-.78-1.26-1.16-1.89c-1.48-2.42-2.94-4.84-4.43-7.25a.56.56,0,0,0-.41-.23c-1.57,0-3.14,0-4.71-.08-.6,0-1.2-.05-1.72-.07,0-1.85.06-3.63.09-5.42h.23l6.82.15a1.06,1.06,0,0,0,.66-.18c3-2.64,5.9-5.3,8.85-8a2.42,2.42,0,0,0,.45-.51c.45-.74-2-2.89-2.68-2.29-2.63,2.35-5.24,4.72-7.87,7.07a1,1,0,0,1-.63.24c-1.6,0-3.2-.05-4.79-.09l-.9,0,.16-7.49c2.44.08,4.37-.06,6.85,0,0-.11.56,0,.56-.11"/><path class="cls-1" d="M35,24.51a2,2,0,1,0,3-2.81,2.05,2.05,0,0,0-2.87-.08A2,2,0,0,0,35,24.51Z"/><path class="cls-1" d="M45.32,28.9A2,2,0,1,0,45.38,26,2.09,2.09,0,0,0,45.32,28.9Z"/><path class="cls-1" d="M24.44,32a2,2,0,1,0,.06-2.92A2,2,0,0,0,24.44,32Z"/><path class="cls-1" d="M28.33,60.29a1.46,1.46,0,1,0,0-2.09A1.45,1.45,0,0,0,28.33,60.29Z"/><path class="cls-1" d="M40.65,60.4a1.61,1.61,0,1,0,.05-2.31A1.61,1.61,0,0,0,40.65,60.4Z"/><path class="cls-1" d="M55.94,79.22a3.34,3.34,0,0,0-4.31-.46,18.28,18.28,0,0,1-3-2.19A19.93,19.93,0,0,1,42.6,66a.49.49,0,0,1,.24-.59,21.84,21.84,0,0,0,4-3.61,15.39,15.39,0,0,0,3.48-6.68A18.33,18.33,0,0,0,50.68,51l-29.75-.7c0,.27.05.56,0,.86a14.18,14.18,0,0,0,1.4,7,19.84,19.84,0,0,0,5.75,6.86.56.56,0,0,1,.23.71,24.74,24.74,0,0,1-1.65,4.15A18.34,18.34,0,0,1,20.31,77c-.39.25-.79.48-1.21.7a3.36,3.36,0,1,0,1.64,2.89A21.5,21.5,0,0,0,27,75.36,22.34,22.34,0,0,0,30.25,70c.39-.9.72-1.82,1.07-2.73,1,.54,2.08,1,3,1.6a1.92,1.92,0,0,0,2.12,0c1-.53,2.06-1,3.11-1.46,0,.09,0,.17.07.26a24.07,24.07,0,0,0,3.39,7.41,21.93,21.93,0,0,0,7.11,6.55,3.35,3.35,0,1,0,5.77-2.49Zm-26.57-17a3,3,0,1,1,3-3A3,3,0,0,1,29.37,62.23ZM37,62.07a.65.65,0,0,1-.64.65h-.89a.65.65,0,0,1-.65-.65V57a.65.65,0,0,1,.65-.65h.89A.65.65,0,0,1,37,57Zm1.78-2.82a3,3,0,1,1,3,3A3,3,0,0,1,38.82,59.25Z"/><path class="cls-1" d="M60.45,19A9.44,9.44,0,0,1,62,19V3.46h3.49l-.07,11.75c0,1.1,0,2.2.06,3.3,0,1.31-.09,2.76-.05,4.17-2.44,0-4.92-.21-7.27-.17"/></g></g></svg>