<svg xmlns="http://www.w3.org/2000/svg" viewBox="0 0 603.3 96.29"><defs><style>.cls-1{fill:#c0e585;}.cls-2{fill:#def2f1;}.cls-3{fill:#edf2d4;}.cls-4{fill:#e5eace;}</style></defs><title>Recurso 22</title><g id="Capa_2" data-name="Capa 2"><g id="Capa_7" data-name="Capa 7"><rect class="cls-1" x="147.5" y="6.48" width="143.94" height="15.99"/><rect class="cls-2" x="310.09" y="6.48" width="82.63" height="17.33"/><rect class="cls-1" x="404.72" y="6.48" width="38.65" height="17.33"/><rect class="cls-3" x="455.36" y="6.48" width="147.94" height="17.33"/><rect class="cls-1" x="147.5" y="40.48" width="143.94" height="15.99"/><rect class="cls-2" x="310.09" y="40.48" width="82.63" height="17.33"/><rect class="cls-1" x="404.72" y="40.48" width="38.65" height="17.33"/><rect class="cls-3" x="455.36" y="40.48" width="147.94" height="17.33"/><rect class="cls-1" x="147.5" y="74.48" width="143.94" height="15.99"/><rect class="cls-2" x="310.09" y="74.48" width="82.63" height="17.33"/><rect class="cls-1" x="404.72" y="74.48" width="38.65" height="17.33"/><rect class="cls-3" x="455.36" y="74.48" width="147.94" height="17.33"/><path class="cls-1" d="M60.6,40.26q6.06,0,9.51-2.34a7.54,7.54,0,0,0,3.45-6.61V17.92q0-7.32,2.59-11t8.4-5.3Q90.37,0,100.65,0V14.7a26.61,26.61,0,0,0-6.35.72,5.82,5.82,0,0,0-2.66,1.71,4.66,4.66,0,0,0-1,3.16V34.57q0,6-3,9.15T78,47.85v.64q6.75,1,9.7,4.16c2,2.07,3,5,3,8.8V76a4.48,4.48,0,0,0,1.1,3.21,6.59,6.59,0,0,0,3,1.71,26.41,26.41,0,0,0,6,.72V96.29q-10.38,0-16.18-1.69t-8.35-5.35q-2.57-3.66-2.56-11.09V65.09A7.52,7.52,0,0,0,70,58.5c-2.35-1.58-5.5-2.37-9.43-2.37Z"/><path class="cls-4" d="M26.2,78.31H15.47a2.84,2.84,0,0,1-2-.63,2.8,2.8,0,0,1-.63-2v-4H2.66a2.79,2.79,0,0,1-2-.63A2.8,2.8,0,0,1,0,69V60.32a2.79,2.79,0,0,1,.63-2,2.79,2.79,0,0,1,2-.63H22.57A1.7,1.7,0,0,0,24,57a2.42,2.42,0,0,0,.48-1.52A2.93,2.93,0,0,0,24,53.66,2,2,0,0,0,22.57,53l-11.1-1.56A16.09,16.09,0,0,1,3.14,48Q0,45.37,0,39.16V31.39q0-5.78,3.4-9.07t9.4-3.81V14.37a2.8,2.8,0,0,1,.63-2,2.84,2.84,0,0,1,2-.62H26.2a2.83,2.83,0,0,1,2,.62,2.8,2.8,0,0,1,.63,2v4H36a2.83,2.83,0,0,1,2,.62,2.8,2.8,0,0,1,.63,2v8.81a2.79,2.79,0,0,1-.63,2,2.79,2.79,0,0,1-2,.63H18.8a1.79,1.79,0,0,0-1.48.63,2.4,2.4,0,0,0-.52,1.59,2.57,2.57,0,0,0,.52,1.63,2,2,0,0,0,1.48.74l11,1.48A16.35,16.35,0,0,1,38.18,42q3.18,2.67,3.19,8.88v7.77a12.11,12.11,0,0,1-3.33,9,14.62,14.62,0,0,1-9.18,3.92v4.14a2.8,2.8,0,0,1-.63,2A2.83,2.83,0,0,1,26.2,78.31Z"/></g></g></svg>