<svg xmlns="http://www.w3.org/2000/svg" viewBox="0 0 100.61 90.73"><defs><style>.cls-1{fill:#12a7c7;}</style></defs><title>Recurso 9</title><g id="Capa_2" data-name="Capa 2"><g id="Capa_1-2" data-name="Capa 1"><path class="cls-1" d="M40.57,51.81c0,1.9,0,3.79,0,5.68a1.16,1.16,0,0,1-1.15,1.16,3.13,3.13,0,0,1-1.32-.18c-11-4.22-17.81-12.09-19.7-23.74A30.09,30.09,0,1,1,58.47,58.39a6.39,6.39,0,0,1-.74.24A1.49,1.49,0,0,1,55.67,57c0-2.63,0-5.26,0-7.9A8.72,8.72,0,0,0,54.87,45c-.27-.52-.64-1-1-1.51,1.13-.23,2.29-.42,3.42-.69a12.26,12.26,0,0,0,7.92-5.24,16,16,0,0,0,2.2-8.08,12.11,12.11,0,0,0-2.84-8.78.92.92,0,0,1-.08-.7,11.44,11.44,0,0,0-.25-7,.82.82,0,0,0-.93-.66A12,12,0,0,0,58.16,14a2.33,2.33,0,0,0-.55.32c-1.24,1.07-2.55,1.06-4.12.71a26.08,26.08,0,0,0-12.2.31,1.36,1.36,0,0,1-1.19-.18,17.92,17.92,0,0,0-5.58-2.61c-2-.49-2.32-.32-2.8,1.73A10.93,10.93,0,0,0,31.85,20a.84.84,0,0,1-.13.69c-2.73,3.2-3.15,7-2.61,10.92a12.7,12.7,0,0,0,3.82,8.06,14.48,14.48,0,0,0,7.34,3.36c.71.14,1.43.24,2.25.38a7.26,7.26,0,0,0-1.79,3.73c0,.15-.26.33-.43.4-3.12,1.21-6.2.69-8.15-2.41a7.59,7.59,0,0,0-2.89-2.87,3.69,3.69,0,0,0-2.62-.39c-.25.06-.6.23-.66.43s.15.51.3.73a1.56,1.56,0,0,0,.53.46,8,8,0,0,1,3.45,4.31c1.2,3,3.51,4.09,6.49,4.16C38,52,39.2,51.88,40.57,51.81Z"/><path class="cls-1" d="M14.26,80.08c-1.07,0-2,0-3,0-.52,0-.73-.2-.72-.72,0-1.16,0-2.32,0-3.49,0-.48.18-.67.67-.66q4,0,7.9,0c.47,0,.62.18.62.63,0,4.11,0,8.21,0,12.31a1.07,1.07,0,0,1-.51.8A25.77,25.77,0,0,1,15,90.43a16.32,16.32,0,0,1-6.78-.13A9.13,9.13,0,0,1,1,83.68,22.14,22.14,0,0,1,1.2,70.09a9,9,0,0,1,7.42-6.28,20.36,20.36,0,0,1,8.26.35,7.43,7.43,0,0,1,.94.32c1,.39,1,.4.74,1.45s-.48,1.89-.65,2.85c-.13.65-.38.8-1,.59a13.73,13.73,0,0,0-6.4-.42,4.92,4.92,0,0,0-4.11,3.51,15,15,0,0,0,0,9.65,4.74,4.74,0,0,0,4.82,3.39,23.11,23.11,0,0,0,2.49-.15c.19,0,.51-.26.52-.41C14.27,83.35,14.26,81.77,14.26,80.08Z"/><path class="cls-1" d="M50,74.09h7.48v-.83c0-2.63,0-5.26,0-7.9,0-.61.16-.84.8-.82,1.33,0,2.66,0,4,0,.53,0,.71.18.71.7q0,12.09,0,24.19c0,.61-.25.78-.82.77-1.3,0-2.61,0-3.91,0-.59,0-.78-.2-.78-.78,0-3.16,0-6.31,0-9.47,0-.62-.12-.87-.81-.85-2,0-4,0-6,0-.58,0-.72.18-.72.73,0,3.13,0,6.26,0,9.39,0,.94,0,1-1,1-1.26,0-2.52,0-3.77,0-.54,0-.76-.16-.76-.73q0-12.11,0-24.2c0-.56.19-.75.74-.73,1.33,0,2.66,0,4,0,.61,0,.77.22.76.79,0,2.64,0,5.27,0,7.9Z"/><path class="cls-1" d="M89.4,73.13a31.69,31.69,0,0,1,3.73-.88c4-.39,6.39,1.39,7.13,5.29a19,19,0,0,1-.35,8.81,5.48,5.48,0,0,1-5.7,4.31A9.27,9.27,0,0,1,88.37,89a.42.42,0,0,0-.2,0c-.37,1.23-.37,1.23-1.7,1.23-.6,0-1.19,0-1.78,0s-.8-.23-.78-.8,0-1.42,0-2.14V65.5c0-.94,0-.94.94-.94,1.26,0,2.52,0,3.77,0,.59,0,.79.18.78.77,0,2.37,0,4.74,0,7.11Zm-.06,8.33h0c0,1.11,0,2.23,0,3.34,0,.53.17.83.64.94a16.48,16.48,0,0,0,2.57.45,2,2,0,0,0,2.3-1.77,12.39,12.39,0,0,0,0-5.65,2.4,2.4,0,0,0-2.79-2.07,9.37,9.37,0,0,0-2.25.55,1,1,0,0,0-.48.72C89.31,79.13,89.34,80.3,89.34,81.46Z"/><path class="cls-1" d="M77.47,89c-.26.13-.47.22-.67.33a10.7,10.7,0,0,1-6.6,1.23c-3-.34-4.67-2-4.82-5.08-.1-2.08,0-4.17-.06-6.25,0-1.92,0-3.85,0-5.77,0-.58.2-.8.78-.79,1.31,0,2.61,0,3.92,0,.65,0,.86.23.86.88,0,3.34,0,6.68,0,10,0,2.25.9,3,3.15,2.51l.27-.05c1.55-.38,1.69-.56,1.69-2.14,0-3.44,0-6.88,0-10.32,0-.68.19-.93.88-.91,1.23,0,2.47,0,3.7,0,.64,0,.88.17.88.84q0,7.89,0,15.79c0,.64-.16.93-.84.87s-1.19,0-1.78,0C77.72,90.21,77.72,90.21,77.47,89Z"/><path class="cls-1" d="M32.72,77.26c-.82,0-1.55,0-2.28,0-.43,0-.61-.16-.6-.58,0-.86,0-1.71,0-2.56a.65.65,0,0,1,.6-.73c.58-.12,1.15-.3,1.73-.4s.56-.3.55-.73c0-1.31,0-2.61,0-3.92,0-.5.17-.65.66-.64,1.37,0,2.75,0,4.12,0,.52,0,.65.19.64.67,0,1.4,0,2.79,0,4.33h3.34c.46,0,.64.18.64.63,0,1.09,0,2.18,0,3.27,0,.49-.19.68-.68.66-1.06,0-2.12,0-3.25,0,0,.29,0,.52,0,.75q0,3,0,6c0,1.48.65,2.15,2.16,2.21.23,0,.47,0,.71,0,1.14-.07,1.14-.08,1.14,1.1,0,.76,0,1.52,0,2.28a.64.64,0,0,1-.57.74,10.34,10.34,0,0,1-4.79.12,4.62,4.62,0,0,1-3.91-4.23A38.93,38.93,0,0,1,32.72,82C32.7,80.47,32.72,78.93,32.72,77.26Z"/><path class="cls-1" d="M28,81.37q0,3.94,0,7.89c0,.87-.06.93-.93.93-1.23,0-2.47,0-3.7,0-.59,0-.87-.24-.87-.84q0-8,0-15.92c0-.55.22-.76.77-.75,1.32,0,2.65,0,4,0,.6,0,.77.22.77.79C28,76.11,28,78.74,28,81.37Z"/><path class="cls-1" d="M25.35,71.25a3.07,3.07,0,1,1,3-3.06A3,3,0,0,1,25.35,71.25Z"/></g></g></svg>