<svg xmlns="http://www.w3.org/2000/svg" viewBox="0 0 135.74 223.39"><defs><style>.cls-1{fill:#e8ca4d;}</style></defs><title>Recurso 25</title><g id="Capa_2" data-name="Capa 2"><g id="Capa_7" data-name="Capa 7"><path class="cls-1" d="M10.3,90.3l20,4,11-12h19l-11-67s4-11,6-11,20.87.83,20.87.83L92.3,91.3l5.08-65.07L110.3,18.3l13,4,7,14.33-8,93.67,13,13-7,51-17,17S60.84,236.79,24.57,198L10.3,180.3l-8-21v-43l2-21Z"/><path d="M57.12,80.24c-3.53-20.15-6.94-39.48-10.31-58.82C45,11.2,50.83,2.31,60.48.36S79.14,4.43,81,14.74C84.73,36.05,88,57.44,92,78.83q1.55-19.1,3.08-38.17c.27-3.31.5-6.64,1-9.93a17.19,17.19,0,0,1,18-14.59c8.9.58,16.3,7.71,16.32,16.52,0,7.81-.71,15.63-1.23,23.43-1.52,23.09-4.2,46.1-3.85,69.29.06,3.56.64,6.33,3.79,8.59a13.66,13.66,0,0,1,5.47,9.78,177,177,0,0,1,.24,37.88c-1.46,15.15-11.37,24.82-23.93,31.87-46.6,26.15-103.24-2.09-110.56-55A40.24,40.24,0,0,1,.05,153c0-16-.1-32,0-48C.13,90.77,13.52,82.65,25.89,89.51c3.39,1.88,4.5,1.49,6.15-1.92,3.86-8,12.09-11.27,20.59-8.78C53.89,79.18,55.13,79.6,57.12,80.24ZM4.65,141.29c-.05,6.29-.17,11.85.65,17.5,7.41,51.45,65.42,77.41,109.87,46.27,8.47-5.93,14.54-14,14.91-24.83s.09-22,.1-33a12.83,12.83,0,0,0-5.81-11q-23.29-16.43-46.61-32.8c-2.93-2-6.16-3.27-9.88-2.43-5.17,1.17-8.82,4.11-10,9.31-1.35,5.79.69,10.56,5.49,14,7.72,5.52,15.58,10.86,23.31,16.38,9.63,6.89,9.75,12.82.44,20.14-8.6,6.76-14.15,15.38-16.14,26.19-.36,2-.4,4-.66,5.95-.18,1.39-.67,2.78-2.32,2.78-1.95,0-2.37-1.58-2.49-3.14a15.68,15.68,0,0,1,.21-3c1.61-14.07,8.58-25,19.66-33.5,5-3.8,4.92-7-.13-10.66-5.52-4-11.18-7.86-16.72-11.85-2.08-1.5-3.34-2.07-4.85,1-6.45,12.91-18.46,15-29.38,5.23-1.4-1.25-2.07-1.48-3.64-.2C20.93,147.56,16.1,147.92,4.65,141.29ZM51.4,18.08a14,14,0,0,0,.13,2.18Q58.07,56.62,64.6,93c.47,2.61,2.06,3.21,4.27,3.05,5.15-.37,9.34,1.8,13.37,4.68q16.68,11.88,33.48,23.61c1.06.74,2.12,2.15,3.46,1.62,1.77-.71,1.08-2.63,1-4-.27-7.18.41-14.31.91-21.45,1.47-21.41,2.95-42.82,4.63-64.22.65-8.16-3.89-14.47-11.56-15.17s-13.07,4.39-13.7,12.58q-2.07,27.12-4.17,54.25c-.32,4.14-.67,8.29-1.12,12.43-.14,1.33-.66,2.73-2.28,2.88s-2.28-1.13-2.65-2.48a33.52,33.52,0,0,1-.72-3.42c-2.17-13.48-4.3-27-6.5-40.43-2.27-14-4.39-27.95-7-41.85-1.3-7-7.1-11-13.33-10.24C55.87,5.62,51.42,10.7,51.4,18.08ZM34.64,111.8h.09c0,5.82,0,11.65,0,17.47a8,8,0,0,0,.4,1.95c1.51,5.87,6,9.66,11.68,9.85a12.41,12.41,0,0,0,12.4-8.23,6.25,6.25,0,0,0-1.39-7.22c-7.17-7.94-7.13-16.44,0-24.54A8.2,8.2,0,0,0,60,94.24c-.68-6.43-6.12-11.56-12.33-11.59a13.16,13.16,0,0,0-13,12.68C34.38,100.8,34.64,106.31,34.64,111.8ZM30,116.67c0-4.15.18-8.31,0-12.45-.4-7.21-6.22-12.71-13-12.54A12.8,12.8,0,0,0,4.64,104.27c-.24,8.13-.26,16.28,0,24.41.25,7.47,5.67,12.41,12.91,12.38,6.7,0,12-5.22,12.39-12.43C30.18,124.65,30,120.66,30,116.67Z"/></g></g></svg>