<svg xmlns="http://www.w3.org/2000/svg" viewBox="0 0 96 96"><defs><style>.cls-1{fill:#fefefe;}.cls-2{fill:#12a7c7;}.cls-3{fill:#f8fbfd;}</style></defs><title>Recurso 11</title><g id="Capa_2" data-name="Capa 2"><g id="Capa_1-2" data-name="Capa 1"><path class="cls-1" d="M47.76,96A47.77,47.77,0,0,0,96,48.39C96,21.42,74.92.07,48.18,0,21.76-.07.16,21,0,47-.17,74.46,20.71,95.9,47.76,96Z"/><path class="cls-2" d="M47.76,96C20.71,95.9-.17,74.46,0,47,.16,21,21.76-.07,48.18,0,74.92.07,96,21.42,96,48.39A47.77,47.77,0,0,1,47.76,96Zm3.11-53.07c.87-3.52-1.11-3.51-3.24-3.41a26.2,26.2,0,0,1-4.34,0c-2.23-.24-2.88.62-2.85,2.82.11,7.69,0,15.38,0,23.08s0,7.67,7.75,7.64c2.14,0,2.87-.53,2.85-2.79,0-5.45-.44-10.93.28-16.37.59-4.42,2.27-5.9,6.21-5.69,3.13.17,4.68,2.14,4.8,6.37.09,3.57,0,7.14,0,10.71,0,8.15,0,8.15,8.2,7.72h.66c1.26,0,1.83-.55,1.78-1.82-.3-7.57.62-15.17-.61-22.7C71.3,41.58,66.93,38.27,60,38.73A13.73,13.73,0,0,0,50.87,42.93ZM34.29,56.4V47.06c0-7.67,0-7.57-7.65-7.59-2.43,0-3,.83-2.94,3.08.12,7.57,0,15.14,0,22.7,0,8,0,7.9,7.92,7.79,2,0,2.74-.52,2.68-2.62C34.19,65.75,34.29,61.08,34.29,56.4Zm.87-27A6.17,6.17,0,0,0,29.23,23,6.41,6.41,0,0,0,23,29.16a6.37,6.37,0,0,0,5.87,6.15A6.1,6.1,0,0,0,35.16,29.38Z"/><path class="cls-3" d="M50.87,42.93A13.73,13.73,0,0,1,60,38.73c7-.46,11.32,2.85,12.44,9.73,1.23,7.53.31,15.13.61,22.7,0,1.27-.52,1.86-1.78,1.82h-.66c-8.2.43-8.19.43-8.2-7.72,0-3.57.07-7.14,0-10.71-.12-4.23-1.67-6.2-4.8-6.37C53.63,48,52,49.46,51.36,53.88c-.72,5.44-.32,10.92-.28,16.37,0,2.26-.71,2.78-2.85,2.79-7.75,0-7.75.11-7.75-7.64s.07-15.39,0-23.08c0-2.2.62-3.06,2.85-2.82a26.2,26.2,0,0,0,4.34,0C49.76,39.42,51.74,39.41,50.87,42.93Z"/><path class="cls-3" d="M34.29,56.4c0,4.68-.1,9.35.05,14,.06,2.1-.69,2.59-2.68,2.62-7.92.11-7.92.17-7.92-7.79,0-7.56.08-15.13,0-22.7,0-2.25.51-3.08,2.94-3.08,7.65,0,7.65-.08,7.65,7.59Z"/><path class="cls-3" d="M35.16,29.38a6.1,6.1,0,0,1-6.3,5.93A6.37,6.37,0,0,1,23,29.16,6.41,6.41,0,0,1,29.23,23,6.17,6.17,0,0,1,35.16,29.38Z"/></g></g></svg>