<svg xmlns="http://www.w3.org/2000/svg" viewBox="0 0 40 96.29"><defs><style>.cls-1{fill:#c0e585;}</style></defs><title>Recurso 23</title><g id="Capa_2" data-name="Capa 2"><g id="Capa_7" data-name="Capa 7"><path class="cls-1" d="M40,56.13q-5.85,0-9.38,2.37a7.52,7.52,0,0,0-3.53,6.59V78.16q0,7.38-2.58,11.06T16.13,94.6Q10.33,96.28,0,96.29V81.64c3.79-.15,6.41-.66,7.85-1.56A4.49,4.49,0,0,0,10,76V61.45c0-3.79,1-6.73,3-8.8s5.2-3.46,9.7-4.16v-.64Q16,46.91,13,43.72t-3-9.15V20.29A4.61,4.61,0,0,0,9,17.1a6.22,6.22,0,0,0-2.64-1.68A26.08,26.08,0,0,0,0,14.7V0Q10.34,0,16.13,1.66T24.51,7q2.58,3.63,2.58,11V31.31a7.55,7.55,0,0,0,3.42,6.61q3.43,2.34,9.49,2.34Z"/></g></g></svg>