<svg xmlns="http://www.w3.org/2000/svg" viewBox="0 0 273 273"><defs><style>.cls-1{fill:#1e1e1a;}.cls-2{fill:#7adaf9;}.cls-3{fill:#f6f6f6;}</style></defs><title>Recurso 10</title><g id="Capa_2" data-name="Capa 2"><g id="Capa_2-2" data-name="Capa 2"><rect class="cls-1" width="273" height="273"/><path class="cls-2" d="M75.16,169.7A108.73,108.73,0,0,1,77.81,146c.31-1.43.13-2.11-1.47-2.61a98.56,98.56,0,0,1-24.87-11.32c-4.49-3-8.65-6.31-11.73-10.82-5.45-8-4.92-16.45,1.41-23.76C46.4,91.45,53,87.26,60.07,83.73a100.37,100.37,0,0,1,16.38-6.48c1.33-.39,1.52-1,1.25-2.25-2-9.72-3.51-19.49-2.44-29.46.57-5.36,1.67-10.58,4.44-15.31,4.08-7,10.35-9.6,18.14-8.9,7.36.67,13.87,3.77,20.13,7.49a103.26,103.26,0,0,1,17,12.82c1.14,1,1.83,1,3,0,7.67-7,16-13.18,25.59-17.36a36.26,36.26,0,0,1,11.42-3.09c9.72-.8,16.81,3.82,20.11,13,2.82,7.85,3.09,16,2.58,24.14a97.75,97.75,0,0,1-2.39,16c-.42,1.8,0,2.5,1.76,3a93,93,0,0,1,25.55,11.87c4.4,3,8.46,6.4,11.29,11,4.79,7.8,4.12,15.75-1.86,22.75-5.09,6-11.46,10.16-18.39,13.62a114,114,0,0,1-17,6.83c-1.17.37-1.48.83-1.21,2.12,2.1,9.89,3.44,19.85,2.39,30a39.18,39.18,0,0,1-3.82,13.9c-3.52,6.94-10.13,10.54-18.12,9.9-7.21-.59-13.58-3.53-19.74-7a100.23,100.23,0,0,1-18-13.44c-1.12-1-1.73-1-2.82,0-8,7.34-16.71,13.78-26.88,17.93a36,36,0,0,1-9.07,2.5c-10.66,1.33-18.23-3.46-21.64-13.66A52.06,52.06,0,0,1,75.16,169.7Zm60.66-91.94c-4.8,0-10.44.26-16.08.64A3.22,3.22,0,0,0,117,79.94a222.14,222.14,0,0,0-16.88,29.52,1.9,1.9,0,0,0-.12,1.81,215.07,215.07,0,0,0,17.5,30.15,2.24,2.24,0,0,0,1.91,1,235,235,0,0,0,33.67,0,3.51,3.51,0,0,0,3-1.69,227.48,227.48,0,0,0,16.79-29.37,2.19,2.19,0,0,0,0-2.12,215.42,215.42,0,0,0-17-29.43,3,3,0,0,0-2.57-1.41C147.72,78,142.2,77.78,135.82,77.76ZM84.27,167.07a54.14,54.14,0,0,0,.44,8.54c.5,3.95,1.34,7.8,3.62,11.18a7.71,7.71,0,0,0,5,3.43,18.17,18.17,0,0,0,9.77-1.13c10-3.53,18.18-10,26-16.91.68-.6.7-1.1.08-1.74a201.43,201.43,0,0,1-15.67-18.72,2.08,2.08,0,0,0-1.6-.88,186.42,186.42,0,0,1-23.7-4.12c-1.06-.26-1.29.08-1.5,1A106.23,106.23,0,0,0,84.27,167.07Zm143.67-56.95a16,16,0,0,0-.41-2c-1.15-3.51-3.58-6.1-6.33-8.38-8.13-6.72-17.67-10.67-27.58-13.89-1-.32-1.18.11-1.42.9a190.58,190.58,0,0,1-8.45,22.72,1.81,1.81,0,0,0,.06,1.65,187.35,187.35,0,0,1,8.42,22.54c.37,1.25.89,1.3,2,.95a98.58,98.58,0,0,0,17.66-7.44c5.17-2.85,10.08-6.08,13.69-10.9A10.92,10.92,0,0,0,227.94,110.12ZM188.71,53c0-4.53-.16-10.4-2.38-16-2.11-5.3-5.4-7.27-11.05-6.62a31.8,31.8,0,0,0-10.14,3.13c-7.88,3.81-14.72,9.13-21.21,14.94-.75.67-.78,1.09-.09,1.82a205,205,0,0,1,15.54,18.63,2.13,2.13,0,0,0,1.56,1A184.24,184.24,0,0,1,184.84,74c.86.21,1.22,0,1.42-.93A106.63,106.63,0,0,0,188.71,53ZM45,110.3a10.15,10.15,0,0,0,.67,3,20.1,20.1,0,0,0,6.28,7.8c8.06,6.59,17.48,10.53,27.26,13.74,1,.32,1.31-.08,1.57-1a189.77,189.77,0,0,1,8.29-22.4,2.38,2.38,0,0,0-.06-2.13,183,183,0,0,1-8.27-22.22c-.34-1.15-.72-1.5-1.94-1.06a129.41,129.41,0,0,0-12.37,4.77c-6.52,3.12-12.86,6.56-17.78,12A12.56,12.56,0,0,0,45,110.3ZM84.15,50.94A97.45,97.45,0,0,0,86.6,72.7c.2.92.35,1.61,1.66,1.28a165.67,165.67,0,0,1,23.53-4.1,2.49,2.49,0,0,0,1.87-1.08,178.62,178.62,0,0,1,15.28-18.35c.83-.85.72-1.34-.12-2.08a108.31,108.31,0,0,0-15.73-11.82c-4.77-2.86-9.73-5.26-15.33-6-5.87-.77-9.12,1.14-11.3,6.66A38.65,38.65,0,0,0,84.15,50.94Zm104.69,119A100.53,100.53,0,0,0,186.46,148c-.25-1.19-.6-1.62-2-1.28a167.49,167.49,0,0,1-23,4,3,3,0,0,0-2.31,1.31,182.15,182.15,0,0,1-15,18.12c-.89.93-.72,1.43.15,2.2a108.53,108.53,0,0,0,14.27,10.9c4.76,2.95,9.67,5.58,15.26,6.65,7.24,1.38,11-.84,13.24-7.87A41.63,41.63,0,0,0,188.84,169.94ZM136.48,68.78v0h9.76c.33,0,.8,0,1-.16.35-.45-.21-.7-.43-1-3.07-3.79-6.24-7.5-9.6-11-.56-.58-.87-.74-1.49-.07-3.34,3.57-6.51,7.27-9.57,11.08-.24.29-.69.63-.36,1,.15.19.63.13,1,.13C130,68.79,133.22,68.78,136.48,68.78Zm11.24,83.1c-7.66.36-14.83.33-22.56,0,2.93,3.43,5.5,6.49,8.14,9.48,3.23,3.66,3.27,3.65,6.52,0C142.49,158.45,145.06,155.4,147.72,151.88Zm-41.7-72c-5.7.85-10.88,1.79-16,3-.9.21-.62.78-.43,1.35.86,2.66,1.67,5.34,2.58,8a46.63,46.63,0,0,0,2.72,6.83C98.44,92.59,101.85,86.27,106,79.89Zm61,60.92c5.6-.76,10.75-1.89,15.89-3.05,1-.22.74-.83.53-1.47-.87-2.65-1.7-5.32-2.61-7.95-.77-2.22-1.63-4.4-2.63-7.06C174.64,128.16,171,134.41,167,140.81Zm11.16-41.67c2.14-5.19,3.71-10.11,5.23-15,.16-.51.29-1-.5-1.2a149,149,0,0,0-15.92-3A221.14,221.14,0,0,1,178.13,99.14ZM94.82,121.56c-2.07,5.22-3.75,10.15-5.22,15.14-.3,1,.46,1,1.06,1.16,2.49.55,5,1.11,7.49,1.59s5,.89,7.94,1.4C101.94,134.43,98.37,128.22,94.82,121.56Z"/><path class="cls-3" d="M69.58,251.11c-2.37,0-4.51,0-6.65,0-.68,0-.87-.48-1.15-.9-2.18-3.23-4.44-6.41-6.5-9.72-1-1.56-2.31-1.05-3.55-1-.7,0-.39.86-.4,1.32,0,3,0,6.06,0,9.09,0,.88-.17,1.28-1.14,1.2-1.68-.14-3.8.66-4.91-.32-.94-.82-.25-3-.26-4.53,0-8.15,0-16.31,0-24.46,0-1.38.37-1.79,1.74-1.73,4.42.19,8.85-.26,13.26.37s7,2.84,7.6,6.68c.83,5.56-.87,9.37-5.14,11.19-1.17.5-.68.92-.29,1.51L69,250.17C69.15,250.4,69.28,250.63,69.58,251.11ZM51.32,229.78c0,1.05,0,2.09,0,3.14,0,.59.13,1,.86,1a38.31,38.31,0,0,0,6.42-.31,3,3,0,0,0,2.66-3c.37-3.44-.69-4.69-4.16-4.89-.58,0-1.16,0-1.74-.05C51.32,225.69,51.32,225.69,51.32,229.78Z"/><path class="cls-3" d="M206.15,219.54c4.69.06,8.4,1,11.14,4.41.66.82.79,1.27-.16,1.9a27.46,27.46,0,0,0-2.88,2.28c-.69.6-1.13.52-1.69-.21-2.06-2.7-4.91-3.09-8-2.47a2.88,2.88,0,0,0-2.69,2.56,2.7,2.7,0,0,0,2.12,3c2.42.8,4.91,1.42,7.36,2.15,6.41,1.9,9.06,7,6.72,12.92-1.34,3.43-4.25,4.82-7.6,5.39a19.72,19.72,0,0,1-10.64-1,10.79,10.79,0,0,1-4.49-3.51c-.55-.68-.58-1.15.2-1.69a34.7,34.7,0,0,0,3.05-2.34c.71-.61,1.12-.43,1.69.23,2.53,2.95,5.76,3.49,9.36,2.57a3.07,3.07,0,0,0,2.64-2.85,3.11,3.11,0,0,0-2.3-3.33c-2-.74-4.1-1.26-6.16-1.89-.94-.29-1.88-.59-2.81-.94-4.07-1.54-6-4.5-5.72-8.57a8.66,8.66,0,0,1,6.94-8.14A15.13,15.13,0,0,1,206.15,219.54Z"/><path class="cls-3" d="M118.24,242c0,2.56,0,5.12,0,7.68,0,1-.17,1.53-1.32,1.41a24.52,24.52,0,0,0-3,0c-.68,0-1.11-.12-1.07-.94.06-1.19-.41-1.1-1.2-.5a10.19,10.19,0,0,1-7.71,2,6.72,6.72,0,0,1-6.21-6.25c-.29-4.4,1.68-7.25,5.79-8.3a43.71,43.71,0,0,1,6.74-.93c.74-.07,1.92.29,2-.78a2.91,2.91,0,0,0-1.45-3.27c-2.06-1-5.86-.63-7.55,1-.71.68-1.17.73-1.89.15a9,9,0,0,0-1.91-1.22c-1.69-.73-1.27-1.55-.2-2.48,2.59-2.26,5.78-2.57,9-2.61a15.45,15.45,0,0,1,5,.67c2.86.93,4.57,2.83,4.72,5.81s0,5.7,0,8.55Zm-5.84.59c-.31-.71.77-2.21-.64-2.23a11.93,11.93,0,0,0-6.4,1.21c-2,1.14-2.24,4.12-.49,5.08,1.95,1.07,3.81.29,5.59-.63C111.85,245.35,112.93,244.47,112.4,242.63Z"/><path class="cls-3" d="M86.23,240.92c-2.21,0-4.42,0-6.62,0-1,0-1.18.34-1.06,1.25.37,2.78,1.85,4.29,4.67,4.5,2,.15,4.09.1,5.71-1.48a.73.73,0,0,1,1.07-.11c1,.76,2.07,1.52,3.12,2.24.56.39.38.72,0,1.13a8.24,8.24,0,0,1-3.82,2.65A17,17,0,0,1,78.87,251a8.38,8.38,0,0,1-5.66-5.95,19,19,0,0,1,.09-11.34C74.86,229,79,226.56,84.42,227c6.34.55,9.1,3.56,9.55,10.4.22,3.49.22,3.49-3.21,3.49Zm-2.73-4c1.21,0,2.43,0,3.64,0,.85,0,1.08-.28,1-1.16-.35-2.71-1.85-4.06-4.68-4.07a4.43,4.43,0,0,0-4.64,4.2c-.08.77.1,1.06.89,1C81,236.87,82.22,236.9,83.5,236.9Z"/><path class="cls-3" d="M123.38,239.54a15.46,15.46,0,0,1,.79-5.49c1.67-4.88,5.73-7.44,10.94-7,2.7.21,5.31.63,7.37,2.62.9.87,1.32,1.65-.17,2.34a3.14,3.14,0,0,0-.7.51c-1.23,1-2.17,1.58-3.93.33-3.2-2.27-7.23-.3-8,3.52a14.51,14.51,0,0,0,0,6,5.55,5.55,0,0,0,9,3.22c.95-.78,1.51-.74,2.31,0a11.61,11.61,0,0,0,1.14.8c2.13,1.5,2.2,1.86,0,3.35-4,2.74-8.43,2.7-12.8.94-4.07-1.64-5.34-5.21-5.74-9.22C123.4,240.82,123.4,240.18,123.38,239.54Z"/><path class="cls-3" d="M148.66,239.48c0-1.92,0-3.84,0-5.76,0-1.07-.21-1.7-1.43-1.49s-1.83-.3-1.61-1.61a4.16,4.16,0,0,0,0-1.22c-.22-1.33.22-2,1.65-1.75,1.05.17,1.46-.24,1.39-1.34-.09-1.33,0-2.67,0-4,0-.84.2-1.21,1.16-1.25,4.65-.21,4.74-.24,4.6,4.4-.06,1.84.49,2.52,2.28,2.2a1,1,0,0,1,.17,0c3.22,0,3.66.56,3.09,3.84-.09.5-.25.74-.74.74h-.7c-4,.09-4.06.09-4,4.1,0,2.56,0,5.12.06,7.68s1.39,3.54,3.81,2.84c1.63-.47,2,0,2.34,1.53.59,2.9.58,3-2.42,3.32l-1,.09c-5.79.45-8.38-1.85-8.54-7.6,0-1.57,0-3.14,0-4.71Z"/><path class="cls-3" d="M189.72,232.87c0,3.73.08,7.45,0,11.18-.11,4.16-2.35,6.67-6.45,7.47a20.54,20.54,0,0,1-9-.47c-1-.25-1.39-.74-.81-1.71a.84.84,0,0,0,.05-.17c.45-1.26.57-2.88,1.44-3.67s2.33.41,3.55.6c3.41.52,4.89-.57,4.92-4q.09-10.14,0-20.27c0-1.38.37-1.88,1.75-1.73a12.74,12.74,0,0,0,3,0c1.47-.18,1.72.47,1.7,1.77-.08,3.67,0,7.34,0,11Z"/><path class="cls-1" d="M125.16,151.88c2.93,3.43,5.5,6.49,8.14,9.48,3.23,3.66,3.27,3.65,6.52,0,2.67-3,5.24-6,7.9-9.53C140.06,152.24,132.89,152.21,125.16,151.88Z"/><path class="cls-1" d="M119.43,142.38a235,235,0,0,0,33.67,0,3.51,3.51,0,0,0,3-1.69,227.48,227.48,0,0,0,16.79-29.37,2.19,2.19,0,0,0,0-2.12,215.42,215.42,0,0,0-17-29.43,3,3,0,0,0-2.57-1.41c-5.52-.35-11-.6-17.42-.62-4.8,0-10.44.26-16.08.64A3.22,3.22,0,0,0,117,79.94a222.14,222.14,0,0,0-16.88,29.52,1.9,1.9,0,0,0-.12,1.81,215.64,215.64,0,0,0,17.5,30.15A2.24,2.24,0,0,0,119.43,142.38Zm17.19-50.75a18.69,18.69,0,1,1-18.9,18.65A18.72,18.72,0,0,1,136.62,91.63Z"/><path class="cls-1" d="M113.56,151.72a2.08,2.08,0,0,0-1.6-.88,186.42,186.42,0,0,1-23.7-4.12c-1.06-.26-1.29.08-1.5,1a106.23,106.23,0,0,0-2.49,19.36,54.14,54.14,0,0,0,.44,8.54c.5,3.95,1.34,7.8,3.62,11.18a7.71,7.71,0,0,0,5,3.43,18.17,18.17,0,0,0,9.77-1.13c10-3.53,18.18-10,26-16.91.68-.6.7-1.1.08-1.74A201.43,201.43,0,0,1,113.56,151.72Z"/><path class="cls-1" d="M227.53,108.14c-1.15-3.51-3.58-6.1-6.33-8.38-8.13-6.72-17.67-10.67-27.58-13.89-1-.32-1.18.11-1.42.9a190.58,190.58,0,0,1-8.45,22.72,1.81,1.81,0,0,0,.06,1.65,187.35,187.35,0,0,1,8.42,22.54c.37,1.25.89,1.3,2,.95a98.58,98.58,0,0,0,17.66-7.44c5.17-2.85,10.08-6.08,13.69-10.9a10.92,10.92,0,0,0,2.36-6.17A16,16,0,0,0,227.53,108.14Z"/><path class="cls-1" d="M159.38,68.89a2.13,2.13,0,0,0,1.56,1A184.24,184.24,0,0,1,184.84,74c.86.21,1.22,0,1.42-.93A106.63,106.63,0,0,0,188.71,53c0-4.53-.16-10.4-2.38-16-2.11-5.3-5.4-7.27-11.05-6.62a31.8,31.8,0,0,0-10.14,3.13c-7.88,3.81-14.72,9.13-21.21,14.94-.75.67-.78,1.09-.09,1.82A205,205,0,0,1,159.38,68.89Z"/><path class="cls-1" d="M89,109.29a183,183,0,0,1-8.27-22.22c-.34-1.15-.72-1.5-1.94-1.06a129.41,129.41,0,0,0-12.37,4.77c-6.52,3.12-12.86,6.56-17.78,12A12.56,12.56,0,0,0,45,110.3a10.49,10.49,0,0,0,.67,3,20.1,20.1,0,0,0,6.28,7.8c8.06,6.59,17.48,10.53,27.26,13.74,1,.32,1.31-.08,1.57-1a189.77,189.77,0,0,1,8.29-22.4A2.38,2.38,0,0,0,89,109.29Z"/><path class="cls-1" d="M88.26,74a165.67,165.67,0,0,1,23.53-4.1,2.49,2.49,0,0,0,1.87-1.08,178.62,178.62,0,0,1,15.28-18.35c.83-.85.72-1.34-.12-2.08a108.31,108.31,0,0,0-15.73-11.82c-4.77-2.86-9.73-5.26-15.33-6-5.87-.77-9.12,1.15-11.3,6.66a38.65,38.65,0,0,0-2.31,13.73A97.45,97.45,0,0,0,86.6,72.7C86.8,73.62,87,74.31,88.26,74Z"/><path class="cls-1" d="M184.51,146.73a167.49,167.49,0,0,1-23,4,3,3,0,0,0-2.31,1.31,182.15,182.15,0,0,1-15,18.12c-.89.93-.72,1.43.15,2.2a108.53,108.53,0,0,0,14.27,10.9c4.76,2.95,9.67,5.58,15.26,6.65,7.24,1.38,11-.84,13.24-7.87a41.63,41.63,0,0,0,1.76-12.09A100.53,100.53,0,0,0,186.46,148C186.21,146.82,185.86,146.39,184.51,146.73Z"/><path class="cls-1" d="M125.75,68.65c.15.19.63.13,1,.13,3.25,0,6.5,0,9.76,0v0h9.76c.33,0,.8,0,1-.16.35-.45-.21-.7-.44-1-3.06-3.79-6.23-7.5-9.59-11-.56-.58-.87-.74-1.49-.07-3.34,3.57-6.51,7.27-9.57,11.08C125.87,67.91,125.42,68.25,125.75,68.65Z"/><path class="cls-1" d="M94.88,99.08c3.56-6.49,7-12.81,11.14-19.19-5.7.85-10.88,1.79-16,3-.9.21-.62.78-.43,1.35.86,2.66,1.67,5.34,2.58,8A46.63,46.63,0,0,0,94.88,99.08Z"/><path class="cls-1" d="M183.39,136.29c-.87-2.65-1.7-5.32-2.61-7.95-.77-2.22-1.64-4.4-2.63-7.06-3.51,6.88-7.13,13.13-11.18,19.53,5.6-.76,10.75-1.89,15.89-3.05C183.83,137.54,183.6,136.93,183.39,136.29Z"/><path class="cls-1" d="M183.36,84.1c.16-.51.29-1-.5-1.2a149,149,0,0,0-15.92-3,221.14,221.14,0,0,1,11.19,19.19C180.27,94,181.84,89,183.36,84.1Z"/><path class="cls-1" d="M90.66,137.86c2.49.55,5,1.11,7.49,1.59s5,.89,7.94,1.4c-4.15-6.42-7.72-12.63-11.27-19.29-2.07,5.22-3.75,10.15-5.22,15.14C89.3,137.72,90.06,137.73,90.66,137.86Z"/><path class="cls-1" d="M51.32,229.78c0-4.09,0-4.09,4-4.08.58,0,1.16,0,1.74.05,3.47.2,4.53,1.45,4.16,4.89a3,3,0,0,1-2.66,3,38.31,38.31,0,0,1-6.42.31c-.73,0-.86-.4-.86-1C51.32,231.87,51.32,230.83,51.32,229.78Z"/><path class="cls-1" d="M112.4,242.63c.53,1.84-.55,2.72-1.94,3.43-1.78.92-3.64,1.7-5.59.63-1.75-1-1.47-3.94.49-5.08a11.93,11.93,0,0,1,6.4-1.21C113.17,240.42,112.09,241.92,112.4,242.63Z"/><path class="cls-1" d="M83.5,236.9c-1.28,0-2.55,0-3.82,0-.79,0-1-.27-.89-1a4.43,4.43,0,0,1,4.64-4.2c2.83,0,4.33,1.36,4.68,4.07.11.88-.12,1.18-1,1.16C85.93,236.88,84.71,236.9,83.5,236.9Z"/><path class="cls-2" d="M136.32,129a18.69,18.69,0,1,1,18.86-18.61A18.67,18.67,0,0,1,136.32,129Z"/></g></g></svg>