<svg xmlns="http://www.w3.org/2000/svg" viewBox="0 0 274.13 274.09"><defs><style>.cls-1{fill:#efda4f;}.cls-2{fill:#fdfbf0;}.cls-3{fill:#323330;}</style></defs><title>Recurso 9</title><g id="Capa_2" data-name="Capa 2"><g id="Capa_2-2" data-name="Capa 2"><path class="cls-1" d="M273.8,274.07q-136.3,0-272.6,0c-1,0-1.2-.22-1.2-1.19Q0,136.6,0,.29H271.67c.44,0,.87,0,1.3,0,.61,0,.89.2.85.82,0,.43,0,.87,0,1.3V272C273.81,272.68,273.81,273.37,273.8,274.07Zm-64.27-21.71A58.27,58.27,0,0,0,228,249.57c8.45-2.87,15.43-7.67,19.95-15.57,3.58-6.26,4.59-13.1,4.26-20.21-.5-10.4-4.55-19-12.7-25.62-5.58-4.52-11.9-7.76-18.39-10.7-5.09-2.31-10.33-4.28-15.32-6.81a25.79,25.79,0,0,1-7-4.76c-4.39-4.45-4.69-15.18,4.25-18.19a15.84,15.84,0,0,1,16.79,3.52,24.17,24.17,0,0,1,4.39,5.8c.33.57.58.71,1.19.32q9.28-6,18.61-12c.51-.33.61-.59.29-1.12-4-6.75-9-12.48-16.26-15.83-10.52-4.86-21.48-5.24-32.54-2.34a32.49,32.49,0,0,0-20.75,15.6c-3.58,6.23-4.61,13-4.13,20.09.62,9.22,4.05,17.13,10.93,23.44,5.51,5.06,12,8.45,18.81,11.43,5.28,2.32,10.64,4.44,15.79,7a25.39,25.39,0,0,1,7.06,4.81,11.43,11.43,0,0,1,3,11c-1,4.33-3.93,7.08-7.94,8.44-9.46,3.24-18.38,2.09-26.38-4.18a32.8,32.8,0,0,1-7.42-8.66c-.49-.79-.84-1.05-1.78-.49q-9.42,5.55-18.91,11c-.8.46-.88.79-.45,1.58a45.87,45.87,0,0,0,15.73,17C188.35,250.08,198.66,252.27,209.53,252.36Zm-60.77-79.79h.1c0-15.11,0-30.21,0-45.32,0-1.13-.26-1.44-1.42-1.43q-11.33.09-22.66,0c-1.28,0-1.64.26-1.64,1.6q.06,42.58,0,85.17a35.1,35.1,0,0,1-.49,6.48c-.71,3.81-2.14,7.23-5.93,8.94-4.92,2.2-13.49,2.56-18.66-3.83A49.16,49.16,0,0,1,93.38,217c-.39-.71-.67-.76-1.36-.35q-9.54,5.83-19.14,11.59c-.66.39-.91.7-.5,1.5,4.27,8.45,10.44,15,19.2,18.83,9.55,4.2,19.51,4.63,29.6,2.72,8-1.53,15-5.14,20.1-11.74a36.37,36.37,0,0,0,7.41-22.21C148.94,202.44,148.76,187.5,148.76,172.57Z"/><path class="cls-2" d="M273.8,274.07c0-.7,0-1.39,0-2.08V2.42c0-.43,0-.87,0-1.3,0-.62-.24-.86-.85-.82-.43,0-.86,0-1.3,0H0C.08.21-.11,0,.15,0S.85,0,1.2,0Q137,0,272.83,0c1.05,0,1.26.21,1.26,1.27q0,135.81,0,271.63C274.05,273.28,274.35,273.78,273.8,274.07Z"/><path class="cls-3" d="M209.53,252.36c-10.87-.09-21.18-2.28-30.47-8.23a45.87,45.87,0,0,1-15.73-17c-.43-.79-.35-1.12.45-1.58q9.48-5.42,18.91-11c.94-.56,1.29-.3,1.78.49a32.8,32.8,0,0,0,7.42,8.66c8,6.27,16.92,7.42,26.38,4.18,4-1.36,7-4.11,7.94-8.44a11.43,11.43,0,0,0-3-11,25.39,25.39,0,0,0-7.06-4.81c-5.15-2.6-10.51-4.72-15.79-7-6.78-3-13.3-6.37-18.81-11.43-6.88-6.31-10.31-14.22-10.93-23.44-.48-7.08.55-13.86,4.13-20.09a32.49,32.49,0,0,1,20.75-15.6c11.06-2.9,22-2.52,32.54,2.34,7.23,3.35,12.27,9.08,16.26,15.83.32.53.22.79-.29,1.12q-9.33,6-18.61,12c-.61.39-.86.25-1.19-.32a24.17,24.17,0,0,0-4.39-5.8,15.84,15.84,0,0,0-16.79-3.52c-8.94,3-8.64,13.74-4.25,18.19a25.79,25.79,0,0,0,7,4.76c5,2.53,10.23,4.5,15.32,6.81,6.49,2.94,12.81,6.18,18.39,10.7,8.15,6.61,12.2,15.22,12.7,25.62.33,7.11-.68,14-4.26,20.21-4.52,7.9-11.5,12.7-19.95,15.57A58.27,58.27,0,0,1,209.53,252.36Z"/><path class="cls-3" d="M148.76,172.57c0,14.93.18,29.87-.07,44.8a36.37,36.37,0,0,1-7.41,22.21c-5.12,6.6-12.06,10.21-20.1,11.74-10.09,1.91-20.05,1.48-29.6-2.72-8.76-3.85-14.93-10.38-19.2-18.83-.41-.8-.16-1.11.5-1.5q9.59-5.78,19.14-11.59c.69-.41,1-.36,1.36.35a49.16,49.16,0,0,0,4.73,7.15c5.17,6.39,13.74,6,18.66,3.83,3.79-1.71,5.22-5.13,5.93-8.94a35.1,35.1,0,0,0,.49-6.48q0-42.59,0-85.17c0-1.34.36-1.62,1.64-1.6q11.33.09,22.66,0c1.16,0,1.43.3,1.42,1.43,0,15.11,0,30.21,0,45.32Z"/></g></g></svg>