<svg xmlns="http://www.w3.org/2000/svg" viewBox="0 0 273 273"><defs><style>.cls-1{fill:#0096d1;}.cls-2{fill:#0170be;}.cls-3{fill:#f1f6f9;}.cls-4{fill:#02abe2;}.cls-5{fill:#cecfd0;}.cls-6{fill:#fbfdfd;}</style></defs><title>Recurso 13</title><g id="Capa_2" data-name="Capa 2"><g id="Capa_2-2" data-name="Capa 2"><rect class="cls-1" width="273" height="273"/><path class="cls-2" d="M136.59,72.28q35.08,0,70.17,0c4.33,0,4.21,0,3.82,4.41-1.09,12.5-2,25-3.11,37.5-1,11.82-2.21,23.62-3.29,35.44q-1.55,17-3,34c-1.15,12.88-2.32,25.75-3.41,38.63a2.76,2.76,0,0,1-2.32,2.81q-21.78,6-43.53,12.08-6.27,1.76-12.5,3.68a11,11,0,0,1-6.53-.06Q105.43,233,78,225.28A3.26,3.26,0,0,1,75.27,222C74,208,72.61,194,71.36,180c-1.27-14.41-2.24-28.86-3.69-43.25-.88-8.73-1.3-17.49-2.56-26.19-.86-6-.84-12.12-1.37-18.17-.5-5.58-.64-11.19-1.41-16.73-.43-3.07.76-3.39,3.22-3.38q31,.07,62.05,0Zm.09,117.51a3.41,3.41,0,0,1-1.12.14c-7-1.3-14-2.69-21-3.91-2.08-.35-2.66-1.39-2.74-3.32-.14-3.37-.56-6.73-.74-10.1-.1-1.95-1-2.69-2.91-2.66-4.53.07-9.07.06-13.61,0-1.43,0-2.09.34-2,2,.48,8.29,1.21,16.54,2.39,24.76a2.58,2.58,0,0,0,2.17,2.57q19.77,4.94,39.51,10c.05,4.44.08,8.89.15,13.33.09,5.27-1.13,6.68,5.72,4.22a8.08,8.08,0,0,1,.85-.2q20.12-5.51,40.23-11c1.58-.43,2.54-1.17,2.63-2.92.12-2.32.38-4.62.59-6.92,1.68-18.06,3.5-36.1,5-54.17,1.76-21.35,3.62-42.68,5.77-64,.22-2.21-.39-3.18-2.77-3.18q-27.54.09-55.06,0c-2.31,0-3,.92-3,3.11,0,4.92.31,9.85-.19,14.76-1.16,0-2.31.09-3.47.09-14.89,0-29.77,0-44.66,0-2.08,0-3.18.16-2.73,2.76a100.43,100.43,0,0,1,1.2,11.22c.15,2.38.93,3.25,3.47,3.24,13.54,0,27.07.1,40.6.21a5.37,5.37,0,0,1,3.36.55c-1,.5-1.85.91-2.68,1.27-13.12,5.67-26.21,11.38-39.36,17-2.06.87-3,1.82-2.66,4.26a117.76,117.76,0,0,1,1.24,13c.08,2.37.78,3,3.16,3,14.2-.11,28.41,0,42.62,0Q136.64,174.27,136.68,189.79Z"/><path class="cls-3" d="M136.56,31.76c3.87,0,7.74.1,11.6-.05,2-.07,2.43.68,2.45,2.51.09,6.1.15,6.1-6,6.1-4.06,0-8.12,0-12.18,0-1.3,0-2.2.08-2.22,1.79s1,1.74,2.23,1.73c5.32,0,10.63,0,15.95,0,1.57,0,2.25.39,2.21,2.1-.1,4.05-.08,8.12,0,12.17,0,1.57-.39,2.25-2.09,2.24q-12-.11-24.06,0c-1.61,0-1.94-.65-1.91-2.07.14-5.53-.62-4.44,4.33-4.51,4.16-.06,8.31,0,12.47,0,1.45,0,2.56.05,2.54-2s-1.27-2-2.64-2c-4.35,0-8.7,0-13,0-2.49,0-4.09-.64-3.75-3.86a83.52,83.52,0,0,0,.07-11.3c-.06-2.06.45-2.93,2.73-2.81C129,31.9,132.79,31.76,136.56,31.76Z"/><path class="cls-3" d="M167.11,60.7c-3.86,0-7.73-.1-11.59,0-1.93.08-2.66-.57-2.4-2.45a4.64,4.64,0,0,0,0-1.44c-.42-2.49.45-3.37,3.1-3.23,4.62.24,9.26,0,13.9.09,1.47,0,2.32-.19,2.3-2s-.76-2.07-2.29-2c-4.73.07-9.47-.11-14.19.08-2.38.09-2.95-.75-2.86-3,.17-4.05.12-8.11,0-12.17,0-1.69.4-2.38,2.25-2.36,7.92.09,15.84.07,23.76,0,1.61,0,2.15.52,2.2,2.17.19,5.9.25,5.86-5.6,5.91-4.14,0-8.29.23-12.44.3-1.19,0-2,.14-2.07,1.67,0,1.7,1.06,1.53,2.12,1.53,5.12,0,10.24.08,15.35,0,1.95,0,2.75.43,2.66,2.55-.16,3.95-.16,7.92,0,11.87.09,2.12-.69,2.6-2.65,2.53C174.84,60.61,171,60.7,167.11,60.7Z"/><path class="cls-3" d="M91.94,45.89c0-4,.07-7.92,0-11.88,0-1.75.52-2.31,2.32-2.29q11.44.15,22.89,0c1.77,0,2.27.52,2.29,2.29.08,6.59.15,6.59-6.37,6.6-3.58,0-7.15.08-10.72,0-1.64,0-2.2.55-2.14,2.18q.15,4.2,0,8.4c-.06,1.55.48,2,2,2,4.83-.09,9.66.07,14.48-.08,2.13-.07,3.09.5,2.77,2.71a9,9,0,0,0,0,2.32c.18,1.59-.36,2.2-2.06,2.18q-11.72-.1-23.46,0c-1.55,0-2-.45-2-2C92,54.19,91.94,50,91.94,45.89Z"/><path class="cls-4" d="M136.52,102.3c.5-4.91.19-9.84.19-14.76,0-2.19.69-3.12,3-3.11q27.53.07,55.06,0c2.38,0,3,1,2.77,3.18-2.15,21.3-4,42.63-5.77,64-1.5,18.07-3.32,36.11-5,54.17-.21,2.3-.47,4.6-.59,6.92-.09,1.75-1.05,2.49-2.63,2.92q-20.13,5.46-40.23,11a8.08,8.08,0,0,0-.85.2c-6.85,2.46-5.63,1.05-5.72-4.22-.07-4.44-.1-8.89-.15-13.33l.72-.51c13.19-2.91,26.11-6.82,39.18-10.12,1.22-.31,1.34-1.08,1.43-2.13,1.51-17.8,3-35.6,4.64-53.38.22-2.42-.62-2.91-2.83-2.87-9,.13-18,.1-27,.12h-9.31a14.47,14.47,0,0,1,4.29-2.56l34.18-15c1.12-.49,2.32-.76,2.42-2.46q.46-7.78,1.22-15.56c.16-1.77-.33-2.36-2.16-2.35-15.55.08-31.11.08-46.67.11A.77.77,0,0,0,136.52,102.3Z"/><path class="cls-5" d="M136.61,158.75c-14.21,0-28.42-.08-42.62,0-2.38,0-3.08-.6-3.16-3a117.76,117.76,0,0,0-1.24-13c-.36-2.44.6-3.39,2.66-4.26,13.15-5.59,26.24-11.3,39.36-17,.83-.36,1.64-.77,2.68-1.27a5.37,5.37,0,0,0-3.36-.55c-13.53-.11-27.06-.26-40.6-.21-2.54,0-3.32-.86-3.47-3.24a100.43,100.43,0,0,0-1.2-11.22c-.45-2.6.65-2.77,2.73-2.76,14.89.07,29.77,0,44.66,0,1.16,0,2.31-.06,3.47-.09a.77.77,0,0,1,.23.21q0,26.42.05,52.85a23.78,23.78,0,0,0,.4,3.12Z"/><path class="cls-5" d="M137.32,208.72l-.72.51q-19.75-5-39.51-10a2.58,2.58,0,0,1-2.17-2.57c-1.18-8.22-1.91-16.47-2.39-24.76-.09-1.63.57-2,2-2,4.54,0,9.08,0,13.61,0,1.92,0,2.81.71,2.91,2.66.18,3.37.6,6.73.74,10.1.08,1.93.66,3,2.74,3.32,7,1.22,14,2.61,21,3.91a3.41,3.41,0,0,0,1.12-.14.33.33,0,0,1,.13.28c0,3.75-.13,7.5,0,11.25C136.84,203.79,136.22,206.33,137.32,208.72Z"/><path class="cls-4" d="M136.61,158.75l.59-.27c6.76,0,13.52.23,20.27,0,2.9-.08,3.29,1,3.07,3.5-.52,6-.92,11.93-1.14,17.91-.08,2.42-1,3.47-3.3,4.18-6.45,1.93-13,3.41-19.29,6a.33.33,0,0,0-.13-.28Q136.65,174.27,136.61,158.75Z"/><path class="cls-6" d="M136.81,190.07c6.25-2.56,12.84-4,19.29-6,2.34-.71,3.22-1.76,3.3-4.18.22-6,.62-11.95,1.14-17.91.22-2.49-.17-3.58-3.07-3.5-6.75.2-13.51,0-20.27,0a23.78,23.78,0,0,1-.4-3.12q0-26.43-.05-52.85c15.56,0,31.12,0,46.67-.11,1.83,0,2.32.58,2.16,2.35q-.75,7.77-1.22,15.56c-.1,1.7-1.3,2-2.42,2.46l-34.18,15a14.47,14.47,0,0,0-4.29,2.56h9.31c9,0,18,0,27-.12,2.21,0,3,.45,2.83,2.87-1.62,17.78-3.13,35.58-4.64,53.38-.09,1.05-.21,1.82-1.43,2.13-13.07,3.3-26,7.21-39.18,10.12-1.1-2.39-.48-4.93-.55-7.4C136.68,197.57,136.79,193.82,136.81,190.07Z"/></g></g></svg>