<svg xmlns="http://www.w3.org/2000/svg" viewBox="0 0 273 273"><defs><style>.cls-1{fill:#353535;}.cls-2{fill:#ebebeb;}.cls-3{fill:#85cc02;}.cls-4{fill:#f9f9f9;}.cls-5{fill:#507b01;}.cls-6{fill:#8b8b8b;}</style></defs><title>Recurso 11</title><g id="Capa_2" data-name="Capa 2"><g id="Capa_2-2" data-name="Capa 2"><rect class="cls-1" width="273" height="273"/><path class="cls-2" d="M224.91,103c.7-2.45,1.75-4.83,1.37-7.49-.1-.69-.26-1.62.63-1.9,3.64-1.15,3.45-4.06,3.06-6.88-.45-3.26-1.4-6.36-5.6-8.65,1.92,3.29,2.86,5.9,2.7,8.79-.14,2.31-1,3.67-3.44,2.45-9.82-4.87-19.92-4.16-30-1.25-5.67,1.64-9.94-.54-14.18-3.74-3.13-2.37-3.87-2-4.68,1.92a24.79,24.79,0,0,1-2.16,6.58c-2.29,4.37-5.48,7.09-11.78,5.25,5.51,6.48,6.9,14.14,11.77,19.87,1.27,1.5,2.39,3.13,4.74,2.86a4,4,0,0,1,1.41.36c3.28,1,6.05,2.72,7.26,6,.46,1.28-5.26,6.7-7.34,7.26a3.35,3.35,0,0,1-3.69-1c-1.9-2.59-5.77-4-4.82-8.38.24-1.14-1.3-1.66-2.19-2.19-5.34-3.21-10.73-6.31-16.07-9.5-4.27-2.54-7.26-6-8.3-11.07a6,6,0,0,1,1.16-5.48,20.1,20.1,0,0,0,3.85-7.8c1.84-6.58,2.73-7.2,9.19-7-2.47-3.08-2.37-5.66.76-8.56,4.45-4.1,9.78-5.2,15.64-3.89.91.21,1.73.92,2.75.5l-.06-.1c1.06,1.28,2.53.62,3.82.8a3.74,3.74,0,0,0,3.41.28c4-.57,8,.06,12,.22,2.72,1.39,5.53,2.28,8.63,1.51,3.25-.2,6.3-1.91,9.66-1.36l0,0a7.38,7.38,0,0,0,3.75,1.52l-.08,0a1.64,1.64,0,0,0,1.53.8l-.06,0c.86.78,1.57,1.87,3,1.57l-.12,0c.64,1.89,1.49,2.06,3.61,1.52,4.55-1.16,10.33,5.11,9.45,10.66-.62,4-.52,7.33,1.23,11,1.57,3.31.91,6.7-3.12,8.77,2.47.44,5.26-.75,6.62,2.07a9.76,9.76,0,0,1-.05,8.87c-2.67,5.28-5.63,10.43-8.67,15.52-2,3.31-5,3.07-8,1.67a7.55,7.55,0,0,1-3.81-8.27c.59-3.08,3.06-3.71,5.79-3.93,4.86-.39,5.06-.87,2.25-5.15-1.75-2.65-2.21-5.36-.58-8.23,1,0,1.8-.08,1-1.41C227,106.54,226,104.76,224.91,103Zm-63.37-4.79c-.08-.08-.18-.24-.24-.23a2.42,2.42,0,0,0-.49.23c.08.08.18.24.24.23A2,2,0,0,0,161.54,98.21Z"/><path class="cls-2" d="M203.64,148.55c-.24-2.17.87-4.28.23-6.85-2,2.93-2.41,6.12-3.07,9.11-2,9.06-5.58,16.93-13.12,23-2.51,2-3.41,6.19-5.78,9-1,1.14,1.44,1.49,1.21,3.22a43.16,43.16,0,0,1-3.73,13.32c-2.51,5.13-4.4,10.35-4,16.15.17,2.32-.91,3.08-3,2.81-.85-.11-1.72-.07-2.56-.21-4.88-.78-4.88-.79-4.33-5.79.73-6.68.55-13.42,1.68-20.08s3.51-12.41,8-17.31a4.56,4.56,0,0,0,1.19-4.87c-2.91-11.19-.54-22,2.64-32.79a4,4,0,0,1,2.17-2.3c2.35-1.4,4.11-3.44,6-5.34,1-1,1.71-2.07,1-3.55a12.49,12.49,0,0,0,1.25-5.6,70.82,70.82,0,0,0,25.35,2.22c.81-.06,1.73-.37,1.87,1,1,9.57,4,18.83,4.4,28.5.27,6.75.49,13.48-4,19.25a2.63,2.63,0,0,0-.28,2.1c.51,3.88-.56,7.48-1.8,11.08-.48,1.39-1,2.25-2.73,2.24-2.92,0-5.84.26-8.76.41-.13-2.54,1.76-4.16,2.92-6.07a8,8,0,0,0,1.28-5.52c-.78-5.64-1.29-11.33-2.43-16.9C204.61,155.37,205.83,151.67,203.64,148.55Z"/><path class="cls-3" d="M140.2,105.21c2.12,5.8,6.65,9.13,11.93,11.7,4.48,2.18,9.11,4.06,13.31,6.79a8.66,8.66,0,0,1,3.16,4.13c1.45,3.21,2.62,7,6.59,8.33,1.34.45,1.22,1.35.84,2.31-.43,1.14-1,2.23-1.46,3.34-1.08.11-1.68.92-2.38,1.59a117,117,0,0,1-18.88,14.35c-3.28,2.05-7.26,2.66-10.26,5.21a55.71,55.71,0,0,1-18.47-1.15c-9.76-2.48-15.63-9.53-16.4-19.76a1.85,1.85,0,0,0,1.33-1.13c6.81-13.74,17.72-24.1,28.5-34.56A2.89,2.89,0,0,1,140.2,105.21Z"/><path class="cls-3" d="M64.56,139.2c2.84-15.62,11-26.76,22.75-35.33C105.5,90.61,126,82.06,147.44,75.76c2.07-.6,4.06-1.6,6.61-1.51-1.09,2.92-1.09,5.8-4.92,6.9-2.94.85-3.93,4.22-4.55,7.12-.75,3.55-2.71,5.46-6.1,6.93-14.57,6.32-28.91,13.17-42.8,20.87A139.48,139.48,0,0,0,64.56,139.2Z"/><path class="cls-4" d="M61.09,223.18c0,2.11-.05,4.22,0,6.33,0,1.11-.23,1.71-1.42,2a41.77,41.77,0,0,1-13.77,1.66c-6.88-.46-11.17-4.07-13.08-10.66a26.69,26.69,0,0,1-.52-12.77c2.16-10.57,11.2-15.89,21.9-13a25.83,25.83,0,0,1,4.62,1.83c.91.45,2.53.56,2.09,2.19a7.42,7.42,0,0,1-3.27,4.6c-.5.3-1-.24-1.42-.49a14.54,14.54,0,0,0-3.86-1.61c-6.88-1.78-11.12,1.11-12.05,8.11A22.27,22.27,0,0,0,41,221a9.07,9.07,0,0,0,12,5.51,1.11,1.11,0,0,0,.76-1.2,23.36,23.36,0,0,1,0-2.9c.31-2.39-.16-3.57-3.08-3.38s-4.72-3.38-3.17-6.08c.34-.6.82-.56,1.32-.56,2.72,0,5.45-.13,8.17,0s4.07,1.75,4.13,4.47C61.13,219,61.09,221.07,61.09,223.18Z"/><path class="cls-4" d="M121,232.91c-3,0-4-.83-5.09-4.24-1.19-3.83-1.19-3.83-5.2-3.83h-.79c-2.19,0-4.8-.63-6.47.32s-1.56,3.89-2.22,5.94c-.35,1.1-.8,1.63-2,1.68a18.07,18.07,0,0,1-4.47-.15c-1.27-.27-1.7-.75-1.21-2.19,3.64-10.77,7.19-21.58,10.76-32.38.08-.25.08-.63.25-.73,2.51-1.53,5.26-.53,7.9-.72,1.56-.1,1.78,1.12,2.13,2.21q4.8,14.88,9.6,29.76C125.44,232.22,124.91,232.94,121,232.91ZM105.1,218.46c2.29,0,4.3,0,6.32,0,.63,0,1.62.25,1.28-1-1.18-4.23-2.39-8.45-3.72-13.12Z"/><path class="cls-4" d="M78.36,196a27.33,27.33,0,0,1,10.53,2.25c1.25.53,1.69,1.16,1.31,2.59-1,3.66-2,4.27-5.52,3a16.53,16.53,0,0,0-7.46-1.14,3.26,3.26,0,0,0-3.07,2.45c-.48,1.66.47,2.77,1.78,3.41,2.51,1.22,5.16,2.18,7.68,3.38,4.45,2.13,7.77,5.07,7.59,10.6a9.91,9.91,0,0,1-6.39,9.4c-6.72,2.6-13.08,1.18-19.24-2a1.48,1.48,0,0,1-.78-2,8.41,8.41,0,0,1,2.08-3.9c1.61-1.65,2.64.39,3.84.84,2.66,1,5.28,1.87,8.16,1.7a3.71,3.71,0,0,0,3.76-2.72,3.35,3.35,0,0,0-1.83-4c-1.82-1-3.77-1.81-5.68-2.69-1-.47-2.11-.85-3.12-1.36-4.78-2.4-6.73-5.88-6.12-10.82.48-3.83,4-7.42,8.38-8.48A14.91,14.91,0,0,1,78.36,196Z"/><path class="cls-4" d="M129.5,214.65c0-5.36,0-10.71,0-16.07,0-.81-.32-1.9,1.1-1.92,4.74-.06,9.53-.61,14.21.11,6.76,1,10.14,6.06,9.61,13.43-.46,6.37-4.89,10.53-11.64,10.93-1.65.1-3.93-.53-4.81.33-1.2,1.16-.28,3.48-.41,5.29-.05.62,0,1.23,0,1.85,0,4.16,0,4.16-4.3,4.15-3.77,0-3.77,0-3.77-3.87Zm8.07-5.75c0,1.57,0,3.15,0,4.72,0,.92.14,1.35,1.25,1.43,6,.43,9.06-3.6,6.91-9.16-1.1-2.84-3.45-4-7.16-3-2.13.56-.56,2.64-1,4A7.66,7.66,0,0,0,137.57,208.9Z"/><path class="cls-2" d="M185.78,90.56c3.53,1.38,7,.37,10.43-.38,8-1.73,15.95-2,23.86.71,2.45.86,3.27,2.19,2.88,4.64a21.61,21.61,0,0,1-2,6.64,32,32,0,0,0-3.74,16.23c.06,1.39.06,2.26-1.7,2.45-8.85,1-17.58,1.31-25.55-3.7a23.27,23.27,0,0,0-5.21-18.49C182.16,95.41,182.57,93.33,185.78,90.56Z"/><path class="cls-3" d="M214.39,201.46c0,5.35,0,10.7-.07,16a4.2,4.2,0,0,0,2.55,4.29c4.62,2.43,9.13,5,13.69,7.6.83,1.86,1.26,3.7-.1,5.52-8.53-.39-16.94-2.23-25.51-2-.06-1.45-.16-2.89-.15-4.34,0-1.28-.4-2-1.81-2.13-1.79-.16-3.56-.51-5.33-.78,3.16-7.71,1.76-15.21-1-22.65,1-1.32,2.43-.84,3.7-.86C205,202.08,209.73,202.42,214.39,201.46Z"/><path class="cls-5" d="M140.2,105.21a2.89,2.89,0,0,0-2.19,1.15c-10.78,10.46-21.69,20.82-28.5,34.56a1.85,1.85,0,0,1-1.33,1.13c-.8-4.05-1.57-8.11-2.4-12.15a27.13,27.13,0,0,0-4.5-10.32c-1.09-1.53-.78-2.31.73-3.12,11.08-5.94,22.16-11.84,33.75-16.74,1.82-.77,3-.71,3.21,1.69A19.13,19.13,0,0,0,140.2,105.21Z"/><path class="cls-2" d="M191.73,60.38A43.27,43.27,0,0,1,189,39.64,4.71,4.71,0,0,1,193.26,35a8.13,8.13,0,0,1,1.07-.22C207.69,34,208.61,36,207.4,47.19c-.26,2.42-.55,4.84-1,7.23-1.1,5.85-2.42,6.91-8.3,6.86a16.91,16.91,0,0,1-6.42-1Z"/><path class="cls-5" d="M143.05,163c3-2.55,7-3.16,10.26-5.21a117,117,0,0,0,18.88-14.35c.7-.67,1.3-1.48,2.38-1.59-1.68,7.75-3.57,15.47-2.81,23.51.11,1.21.15,2.44.36,3.64.5,2.84-1.36,7-3.71,8.45a1.53,1.53,0,0,1-2-.18,13.13,13.13,0,0,1-2.34-2.31c-4.65-6.57-11.07-10.15-18.91-11.41A20,20,0,0,1,143.05,163Z"/><path class="cls-2" d="M168.3,238.38a25.42,25.42,0,0,1-4.91-.7c-5-1.57-5.85-5.33-2.28-9.19,1.23-1.33,3.86-1.8,2.3-5-.85-1.74,3-4.33,5.72-4.17,4.06.22,6.62,2,5.46,4.38-1.75,3.58,0,6.23.88,9.13,1.29,4.24.69,5.34-3.72,5.53C170.9,238.41,170,238.38,168.3,238.38Z"/><path class="cls-6" d="M185.78,90.56c-3.21,2.77-3.62,4.85-1,8.1A23.27,23.27,0,0,1,190,117.15c-4.63-1.78-5.53-3.36-5.68-8.12-.07-2.19,2.23-2.07,2.68-3.82a12.4,12.4,0,0,1-8.57-3.31c-3-2.65-5.85-5-2.71-9.6,1.22-1.79.88-4.64,1.36-7.7C179.8,87.44,182.85,88.9,185.78,90.56Z"/><path class="cls-6" d="M203.64,148.55c2.19,3.12,1,6.82,1.67,10.21,1.14,5.57,1.65,11.26,2.43,16.9a8,8,0,0,1-1.28,5.52c-1.16,1.91-3.05,3.53-2.92,6.07a9.07,9.07,0,0,1-2.16-.09c-1.57-.43-4.27.38-4.55-1.2-.41-2.36,1.59-4.72,3.75-5.28,4-1.06,3.43-3.56,2.84-6.34a11.35,11.35,0,0,0-.93-3.51C197.75,163.1,202.59,155.93,203.64,148.55Z"/><path class="cls-3" d="M204.74,72.79c-3.1.77-5.91-.12-8.64-1.51-3.7-2.19-7.71-1.27-11.65-1.19a8.42,8.42,0,0,0-3.93,0L176.89,70l.06.1c-1.89-2.29-4.71-2-7.23-2.58a4.41,4.41,0,0,1,.26-.59c2.24-3.38,5.8,1.25,8.68-1.69,2.66-2.71,6.11-.28,9.07,1.09,1.05.49,2.07,1.85,3.44.55H191c.92,2.08,2.67,1.75,4.39,1.52l0,0c0,1.21.9.76,1.52.8l2.67.09c3,3.42,5.65.89,8.33-.62,4.32-2.3,6.72-1.88,10.17,1.23,2.14,1.93,4.65,3.41,7.75,3.34.78,0,1.38.4,1.75,1.48-1.66.79-3.45.4-5.16.47l.12,0c-.66-1.16-1.52-1.94-3-1.57l.06,0c0-1.19-.92-.73-1.53-.8l.08,0c-.85-1.49-2.3-1.51-3.75-1.52l0,0C212.38,69.44,207.13,70.18,204.74,72.79Z"/><path class="cls-3" d="M182.05,117c-.88,1-.05,2.75-1.53,2.81-1.78.06-3.83.08-5.18-1.26-4.47-4.45-6-10.46-8.29-16.1-.41-1,.6-1.15,1.14-1.5.83-.54,1.64-.94,2.55.08,2.45,2.75,5.57,4.69,8.43,7S180.71,114.19,182.05,117Z"/><path class="cls-3" d="M193.77,193.42a6.31,6.31,0,0,1-.73-3.16c-.2-1.85.55-2.36,2.33-1.95,5.55,1.27,11.13.95,16.7.13,5-.74,5-.77,3.69,4.09A95.21,95.21,0,0,1,193.77,193.42Z"/><path class="cls-2" d="M199.55,69.25l-2.67-.09c-.25-.75-.68-1.16-1.52-.8l0,0A6,6,0,0,0,191,66.87h.16c-2.36-2.11-4.8-4.2-2.85-7.88,1.37-.16,1.38,3.12,3.41,1.4l0-.06c-.86,1.2-.86,1.2,1.32,2.51.53,1.6,2.07,1.71,3.28,1.85,3.88.43,7.78.55,11.43-1.29-.19,1.55.79,3.31-.83,4.61A9.13,9.13,0,0,1,199.55,69.25Z"/><path class="cls-3" d="M215.25,195.54l-.27,2.85a44.91,44.91,0,0,1-19.77.94l-1.08-3.12C201.17,196.09,208.24,196.86,215.25,195.54Z"/><path class="cls-5" d="M215.25,195.54c-7,1.32-14.08.55-21.12.67l-.36-2.79a95.21,95.21,0,0,0,22-.89C215.9,193.58,216.07,194.65,215.25,195.54Z"/><path class="cls-5" d="M197.66,225.66c1.77.27,3.54.62,5.33.78,1.41.13,1.82.85,1.81,2.13,0,1.45.09,2.89.15,4.34-1.09,0-2.18.16-3.27.12C196.59,232.84,195.28,230.42,197.66,225.66Z"/><path class="cls-5" d="M195.21,199.33a44.91,44.91,0,0,0,19.77-.94c-.2,1-.39,2-.59,3.07-4.66,1-9.38.62-14.08.69-1.27,0-2.71-.46-3.7.86A6.41,6.41,0,0,1,195.21,199.33Z"/><path class="cls-6" d="M207.71,63.39c-3.65,1.84-7.55,1.72-11.43,1.29-1.21-.14-2.75-.25-3.28-1.85,1.07,0,2.15-.16,3.23-.15,5.94.06,5.94.07,11.19-2.76A6.52,6.52,0,0,1,207.71,63.39Z"/><path class="cls-5" d="M230.46,234.92c1.36-1.82.93-3.66.1-5.52,2.23,0,4.17,1,6.14,1.89.67.28,1.3.7,1.22,1.58a1.64,1.64,0,0,1-1.44,1.43C234.5,234.7,232.55,235.59,230.46,234.92Z"/><path class="cls-6" d="M189.46,120.47a12.49,12.49,0,0,1-1.25,5.6,12.4,12.4,0,0,0-1.57-1.51,3.22,3.22,0,0,1-.8-4.81C186.93,118.21,188.25,120,189.46,120.47Z"/><path class="cls-6" d="M224.91,103c1,1.76,2.05,3.54,3.13,5.27.83,1.33,0,1.41-1,1.41-.09-.56-.55-.64-1-.85C222.18,107,222.12,106.67,224.91,103Z"/><path class="cls-5" d="M199.55,69.25A9.13,9.13,0,0,0,206.88,68l1,.63C205.2,70.14,202.59,72.67,199.55,69.25Z"/><path class="cls-5" d="M204.74,72.79c2.39-2.61,7.64-3.35,9.66-1.36C211,70.88,208,72.59,204.74,72.79Z"/><path d="M184.45,70.09c3.94-.08,8-1,11.65,1.19-4-.16-8-.79-12-.22Z"/><path class="cls-5" d="M184.45,70.09l-.33,1a3.74,3.74,0,0,1-3.41-.28.81.81,0,0,1-.19-.68A8.42,8.42,0,0,1,184.45,70.09Z"/><path d="M214.38,71.39c1.45,0,2.9,0,3.75,1.52A7.38,7.38,0,0,1,214.38,71.39Z"/><path d="M219.52,73.62c1.47-.37,2.33.41,3,1.57C221.09,75.49,220.38,74.4,219.52,73.62Z"/><path d="M180.52,70.1a.81.81,0,0,0,.19.68c-1.29-.18-2.76.48-3.82-.8Z"/><path d="M218.05,72.86c.61.07,1.51-.39,1.53.8A1.64,1.64,0,0,1,218.05,72.86Z"/><path d="M161.54,98.21a2,2,0,0,1-.49.23c-.06,0-.16-.15-.24-.23a2.42,2.42,0,0,1,.49-.23C161.36,98,161.46,98.13,161.54,98.21Z"/><path d="M191,66.87a6,6,0,0,1,4.39,1.52C193.68,68.62,191.93,69,191,66.87Z"/><path d="M195.36,68.36c.84-.36,1.27,0,1.52.8C196.26,69.12,195.38,69.57,195.36,68.36Z"/></g></g></svg>