<svg xmlns="http://www.w3.org/2000/svg" viewBox="0 0 273 273"><defs><style>.cls-1{fill:#d56ea3;}.cls-2{fill:#d46ea3;}.cls-3{fill:#fcfafb;}.cls-4{fill:#d470a3;}</style></defs><title>Recurso 18</title><g id="Capa_2" data-name="Capa 2"><g id="Capa_2-2" data-name="Capa 2"><rect class="cls-1" width="273" height="273"/><path class="cls-2" d="M243.68,244Q135.55,244,27.4,244c-2,0-2.72-.25-2.71-2.56q.11-105,0-210c0-2.06.43-2.49,2.49-2.49q109.29.11,218.58,0c2.3,0,2.56.69,2.55,2.72q-.08,103,0,206A22.77,22.77,0,0,1,243.68,244Zm-116.2-95.42c.1-1.18.21-2.12.25-3.06.37-7.9-4.26-11.2-11.54-8.15a31.74,31.74,0,0,0-12,9.49,8.59,8.59,0,0,1-2.48,2.32q-8.58,4.62-17.09,9.35c-1.24.69-2.14.82-3.24-.33-4-4.22-8.82-7.6-13.41-11.18S58.64,139.68,55,134.9c-4.68-6.18-5.4-12.88-2.76-20a35.52,35.52,0,0,1,10.62-14.72C79.35,86,98,76.11,119.47,72.25c8.34-1.5,16.75-1.64,24.84,1.59,6.74,2.68,9.41,7.72,8,14.86a28.13,28.13,0,0,1-6.36,12.68c-11.8,13.91-27.22,20.23-45.11,20.85a20.87,20.87,0,0,1-15.34-5.3c-.75-.69-1.4-2.31-2.73-1.31-1.14.86-.25,2.17.22,3.13a12.69,12.69,0,0,0,2.1,3,21.42,21.42,0,0,0,11.28,6.41c7,1.62,14,1.19,21.06,0,16.16-2.8,29.85-9.78,39.34-23.7a40.25,40.25,0,0,0,6.15-13.78c2.91-12.75-2.17-22.76-14.21-27.81a55.27,55.27,0,0,0-31.24-3.13c-25,4.33-46.84,15.4-65.68,32.28a54.27,54.27,0,0,0-14.66,20.6,20.74,20.74,0,0,0,1.37,19,50.33,50.33,0,0,0,9.87,11.83c6.78,6.23,14.6,11.06,22,16.42,5.09,3.66,5,3.6-.33,6.54-8.56,4.7-17,9.68-23.2,17.44a20.41,20.41,0,0,0-4.37,18c1.3,5.76,4.57,8.63,10.38,9.48a28.16,28.16,0,0,0,14.62-1.76,34,34,0,0,0,19.83-42.82c-.29-.86-1-1.77.26-2.49a93.15,93.15,0,0,1,10-5.56,88.4,88.4,0,0,0-2.08,10.42c-.83,7.26.25,14.14,4.28,20.31,3.2,4.91,8.92,4.94,12.37.19a37.36,37.36,0,0,0,2.85-5c1.31-2.58,2.52-5.2,3.93-8.14.72,1.66.38,2.9.41,4.1a16.59,16.59,0,0,0,1.11,6.16c1.49,3.48,4.59,4.39,7.69,2.23a17.22,17.22,0,0,0,5-5.83,275.28,275.28,0,0,0,13.17-26.06q2.1-4.92,4.24-9.83h.72a53.57,53.57,0,0,0,5.5,15.5c.49,1-.21,1.63-.73,2.29-2.61,3.29-5.26,6.54-7.87,9.83a77.3,77.3,0,0,0-5.22,6.81c-1.67,2.67-.45,5,2.56,5.5,14.92,2.63,26.43-10.61,21.49-24.79a3.74,3.74,0,0,1,.5-3.67c2.6-4.12,5.09-8.31,7.58-12.49,1-1.74,2-3.55,3-5.33,1.62,5,3.07,9.66,5.39,14.06.67,1.27-.39,1.93-1.15,2.6a39.09,39.09,0,0,0-5.9,6.62c-2.36,3.31-4.15,6.89-4.24,11.06-.08,3.88,2.54,6,6.34,5.23a25.22,25.22,0,0,0,8.92-3.76c9-6.14,10.12-12,7.57-18.91-.61-1.66.19-2.19,1.56-2.63a39.23,39.23,0,0,1,16.14-1.6c6.75.72,13.2,2.3,18.06,7.57,5.64,6.12,5.07,13-1.44,18-.68.52-2.11.93-1.3,2.07.58.82,1.78.28,2.67-.08a13.54,13.54,0,0,0,8.19-13.83c-1.12-9.36-6.82-15.16-15.2-18.42-9.73-3.79-19.48-2.92-29.07.84-1.2.47-2.27,1.34-3.32-.51-3.62-6.36-4.85-13-2.64-20.09,1.88-6,1-7.13-5.45-6.61-.86.07-1.7.3-2.55.38a4,4,0,0,0-3.88,3.56c-2,9.47-7.48,17.26-12,25.54-1.2,2.18-1.94,1.45-2.72-.3a22.77,22.77,0,0,1-1-16.2c2-6.62,1.4-7.3-5.62-6.84l-1.14.08c-2.77.17-4.71,1.22-5.1,4.31a16,16,0,0,1-1.22,4.1c-5.48,12.72-10.9,25.46-17.06,37.86-.39.78-.56,1.84-1.83,2.09a13,13,0,0,1,.3-6.77c1.29-5.38,2.69-10.74,4.08-16.1C134.81,149.17,132.92,147.2,127.48,148.55Z"/><path class="cls-3" d="M243.68,244a22.77,22.77,0,0,0,4.59-6.3v1.72C248.27,244,248.27,244,243.68,244Z"/><path class="cls-3" d="M127.48,148.55c5.44-1.35,7.33.62,6,5.73-1.39,5.36-2.79,10.72-4.08,16.1a13,13,0,0,0-.3,6.77c1.27-.25,1.44-1.31,1.83-2.09,6.16-12.4,11.58-25.14,17.06-37.86a16,16,0,0,0,1.22-4.1c.39-3.09,2.33-4.14,5.1-4.31l1.14-.08c7-.46,7.59.22,5.62,6.84a22.77,22.77,0,0,0,1,16.2c.78,1.75,1.52,2.48,2.72.3,4.51-8.28,10-16.07,12-25.54a4,4,0,0,1,3.88-3.56c.85-.08,1.69-.31,2.55-.38,6.41-.52,7.33.57,5.45,6.61-2.21,7.12-1,13.73,2.64,20.09,1.05,1.85,2.12,1,3.32.51,9.59-3.76,19.34-4.63,29.07-.84,8.38,3.26,14.08,9.06,15.2,18.42a13.54,13.54,0,0,1-8.19,13.83c-.89.36-2.09.9-2.67.08-.81-1.14.62-1.55,1.3-2.07,6.51-5,7.08-11.9,1.44-18-4.86-5.27-11.31-6.85-18.06-7.57a39.23,39.23,0,0,0-16.14,1.6c-1.37.44-2.17,1-1.56,2.63,2.55,6.89,1.48,12.77-7.57,18.91a25.22,25.22,0,0,1-8.92,3.76c-3.8.8-6.42-1.35-6.34-5.23.09-4.17,1.88-7.75,4.24-11.06a39.09,39.09,0,0,1,5.9-6.62c.76-.67,1.82-1.33,1.15-2.6-2.32-4.4-3.77-9.1-5.39-14.06-1,1.78-1.92,3.59-3,5.33-2.49,4.18-5,8.37-7.58,12.49a3.74,3.74,0,0,0-.5,3.67c4.94,14.18-6.57,27.42-21.49,24.79-3-.53-4.23-2.83-2.56-5.5a77.3,77.3,0,0,1,5.22-6.81c2.61-3.29,5.26-6.54,7.87-9.83.52-.66,1.22-1.32.73-2.29a53.57,53.57,0,0,1-5.5-15.5h-.72q-2.13,4.92-4.24,9.83a275.28,275.28,0,0,1-13.17,26.06,17.22,17.22,0,0,1-5,5.83c-3.1,2.16-6.2,1.25-7.69-2.23a16.59,16.59,0,0,1-1.11-6.16c0-1.2.31-2.44-.41-4.1-1.41,2.94-2.62,5.56-3.93,8.14a37.36,37.36,0,0,1-2.85,5c-3.45,4.75-9.17,4.72-12.37-.19-4-6.17-5.11-13-4.28-20.31a88.4,88.4,0,0,1,2.08-10.42,93.15,93.15,0,0,0-10,5.56c-1.24.72-.55,1.63-.26,2.49a34,34,0,0,1-19.83,42.82,28.16,28.16,0,0,1-14.62,1.76c-5.81-.85-9.08-3.72-10.38-9.48a20.41,20.41,0,0,1,4.37-18c6.24-7.76,14.64-12.74,23.2-17.44,5.37-2.94,5.42-2.88.33-6.54-7.43-5.36-15.25-10.19-22-16.42a50.33,50.33,0,0,1-9.87-11.83,20.74,20.74,0,0,1-1.37-19A54.27,54.27,0,0,1,51.75,92c18.84-16.88,40.69-27.95,65.68-32.28a55.27,55.27,0,0,1,31.24,3.13c12,5,17.12,15.06,14.21,27.81a40.25,40.25,0,0,1-6.15,13.78c-9.49,13.92-23.18,20.9-39.34,23.7-7,1.21-14,1.64-21.06,0a21.42,21.42,0,0,1-11.28-6.41,12.69,12.69,0,0,1-2.1-3c-.47-1-1.36-2.27-.22-3.13,1.33-1,2,.62,2.73,1.31a20.87,20.87,0,0,0,15.34,5.3c17.89-.62,33.31-6.94,45.11-20.85a28.13,28.13,0,0,0,6.36-12.68c1.45-7.14-1.22-12.18-8-14.86-8.09-3.23-16.5-3.09-24.84-1.59C98,76.11,79.35,86,62.88,100.14a35.52,35.52,0,0,0-10.62,14.72c-2.64,7.16-1.92,13.86,2.76,20,3.62,4.78,8.26,8.44,12.93,12.09s9.36,7,13.41,11.18c1.1,1.15,2,1,3.24.33q8.5-4.74,17.09-9.35a8.59,8.59,0,0,0,2.48-2.32,31.74,31.74,0,0,1,12-9.49c7.28-3.05,11.91.25,11.54,8.15C127.69,146.43,127.58,147.37,127.48,148.55ZM81.19,175.09c-.15-1.61-.3-3.22-.47-4.83-.23-2-1.1-2.31-2.82-1.23-5.65,3.54-11.27,7.13-16.18,11.7a22.3,22.3,0,0,0-6.19,9.13c-1,3-2.16,6.37.48,8.88s6,1.29,8.92.19C74.37,195.41,81.18,185.29,81.19,175.09ZM105.66,172a18.9,18.9,0,0,0,1,6.76c.69,1.85,1.81,2.2,3.1.55a16.51,16.51,0,0,0,1.77-2.94c2.44-5,4.3-10.19,6.24-15.37A87,87,0,0,0,122,147.37c.2-1,.6-2.19-.48-2.89s-2-.17-3,.33a13.7,13.7,0,0,0-4.7,4.12C108.75,155.81,105.76,163.42,105.66,172Zm81-11.74a23.37,23.37,0,0,0-7.55,12.17c-.3,1.06.15,1.58,1.42,1.24C185.6,172.34,188.89,165.46,186.67,160.3ZM149.89,181c5.94-2,10.11-7.13,9.64-11.24Z"/><path class="cls-4" d="M81.19,175.09c0,10.2-6.82,20.32-16.26,23.84-3,1.1-6.3,2.3-8.92-.19s-1.49-5.86-.48-8.88a22.3,22.3,0,0,1,6.19-9.13c4.91-4.57,10.53-8.16,16.18-11.7,1.72-1.08,2.59-.79,2.82,1.23C80.89,171.87,81,173.48,81.19,175.09Z"/><path class="cls-4" d="M105.66,172c.1-8.62,3.09-16.23,8.12-23.11a13.7,13.7,0,0,1,4.7-4.12c.94-.5,2-1,3-.33s.68,1.88.48,2.89A87,87,0,0,1,117.76,161c-1.94,5.18-3.8,10.4-6.24,15.37a16.51,16.51,0,0,1-1.77,2.94c-1.29,1.65-2.41,1.3-3.1-.55A18.9,18.9,0,0,1,105.66,172Z"/><path class="cls-4" d="M186.67,160.3c2.22,5.16-1.07,12-6.13,13.41-1.27.34-1.72-.18-1.42-1.24A23.37,23.37,0,0,1,186.67,160.3Z"/><path class="cls-4" d="M149.89,181l9.64-11.24C160,173.91,155.83,179,149.89,181Z"/></g></g></svg>