<svg xmlns="http://www.w3.org/2000/svg" viewBox="0 0 273 273"><defs><style>.cls-1{fill:#007acd;}.cls-2{fill:#fcfdfe;}.cls-3{fill:#fafcfd;}</style></defs><title>Recurso 17</title><g id="Capa_2" data-name="Capa 2"><g id="Capa_2-2" data-name="Capa 2"><rect class="cls-1" width="273" height="273"/><path class="cls-2" d="M213.51,129.26c13.8-.56,24.73,4.62,32.68,16.08,1.55,2.23,1.33,3.35-.93,4.75-4.34,2.68-8.63,5.48-12.75,8.49-2.38,1.75-3.78,1.51-5.35-1a15,15,0,0,0-14.1-7.31c-5.39.19-9.12,2.78-10.58,7.49A10.83,10.83,0,0,0,207,170c6.19,4.33,13.46,6.51,20.15,9.84a97.21,97.21,0,0,1,14.46,8.28c11.71,8.55,15,20.51,13,34.07-1.8,12.39-9.53,20.46-21.17,24.4-17.74,6-34.67,4.18-50.3-6.6-4.88-3.36-8.22-8.09-11.33-13-.88-1.41-.66-2.14.76-2.94,5.42-3.09,10.84-6.19,16.16-9.46,1.77-1.09,2.34-.11,3.17,1,3.78,5.25,8.11,9.89,14.63,11.63,5.48,1.46,11,1.62,16.41-.48,4.19-1.62,7.17-4.35,7.74-9.07.58-4.91-1.35-8.65-5.47-11.27-6.93-4.41-14.71-7.08-22-10.63s-14.57-7.68-19.23-14.75c-7.21-10.94-8-22.71-2.33-34.34s16-16.46,28.51-17.44C211.23,129.18,212.37,129.26,213.51,129.26Z"/><path class="cls-3" d="M130.27,200.46c0,14.79-.07,29.57,0,44.36,0,2.72-.53,3.81-3.51,3.68-5.68-.24-11.38-.24-17.06,0-3,.13-3.8-.71-3.79-3.75.13-29.57,0-59.15.15-88.72,0-3.31-.6-4.48-4.22-4.36-9,.31-18,0-26.95.15-2.13,0-2.72-.61-2.66-2.69.16-4.89.23-9.79,0-14.67-.13-3,.7-4,3.92-4,24.79.14,49.59.08,74.38.08,3.53,0,7.06.11,10.58,0,2-.08,2.79.5,2.74,2.66-.12,5.34-.1,10.69.09,16,.07,2.19-.69,2.65-2.71,2.63-9.21-.1-18.43.05-27.64-.1-2.62-.05-3.48.6-3.46,3.36C130.34,170.21,130.27,185.33,130.27,200.46Z"/></g></g></svg>