<svg xmlns="http://www.w3.org/2000/svg" viewBox="0 0 273 273"><defs><style>.cls-1{fill:#262626;}.cls-2{fill:#01fdf2;}.cls-3{fill:#1dedda;}.cls-4{fill:#fdfefe;}</style></defs><title>Recurso 15</title><g id="Capa_2" data-name="Capa 2"><g id="Capa_2-2" data-name="Capa 2"><rect class="cls-1" width="273" height="273"/><path class="cls-2" d="M92.34,118.92a173.74,173.74,0,0,1-19.61,1.59,199.1,199.1,0,0,1-23.68-.59c-8.68-.73-17.31-1.81-25.56-4.84a17.61,17.61,0,0,1-6.67-3.89,4.93,4.93,0,0,1-1.58-2.66V80.24c0-.39.14-.82-.24-1.14v-.49c1.68-3.3,4.77-4.53,8.05-5.4a134.35,134.35,0,0,1,18.88-3.29,197.31,197.31,0,0,1,28.85-1.48A215.61,215.61,0,0,1,98.1,70.88a3.89,3.89,0,0,1,.58.18l0,2.13A259.24,259.24,0,0,0,71.52,71.4c-7.79-.16-15.57,0-23.34.48A142.48,142.48,0,0,0,27.8,74.25a23.91,23.91,0,0,0-6.13,1.88c-.76.39-1.69.75-1.71,1.72s1,1.4,1.74,1.82a14.2,14.2,0,0,0,3.08,1.12c7.76,2,15.72,2.64,23.69,3.12q14.14.84,28.31.33,10.38-.37,20.68-1.47A85,85,0,0,1,96.35,93.2c-.46,3.63-1,7.25-1.57,10.87-.34,2.34-.58,4.72-1.09,7C93.11,113.69,93,116.34,92.34,118.92ZM23.09,96a1.5,1.5,0,0,0-1.51-1.48,1.6,1.6,0,0,0-1.65,1.58,1.52,1.52,0,0,0,1.52,1.58A1.55,1.55,0,0,0,23.09,96Z"/><path class="cls-3" d="M15.24,149.65H15V120h.24Z"/><path class="cls-3" d="M15,79.1c.38.32.24.75.24,1.14v28.29H15Z"/><path class="cls-3" d="M15.23,192.48a.46.46,0,0,0-.23,0V163a.26.26,0,0,1,.21-.05Q15.21,177.72,15.23,192.48Z"/><path class="cls-2" d="M198.39,195.15c-9.86,3-20.46-3.19-23.07-13.53a31.17,31.17,0,0,1-1-7.57q0-21.45,0-42.91a26.15,26.15,0,0,1,1.76-9.62A16.57,16.57,0,0,1,188,111a27.84,27.84,0,0,1,14.3,0c7.35,2,11.35,7.06,12.87,14.32a36.33,36.33,0,0,1,.67,7.36q0,17,0,34c0,.44,0,.89-.06,1.33,0,0-.06,0,0,.06a.42.42,0,0,0,0,.15c0,.16,0,.32,0,.48a2.3,2.3,0,0,0-.76,1.46,46,46,0,0,1-5.74,12.78A37.77,37.77,0,0,1,200,193.59,4.42,4.42,0,0,0,198.39,195.15Zm.48-42.6h0q0-10,0-20.05a15.67,15.67,0,0,0-.27-3.14c-.32-1.53-.74-3-2.52-3.55-2.21-.63-4.07.53-4.71,3a19.54,19.54,0,0,0-.43,4.95q0,19.14,0,38.28a18.07,18.07,0,0,0,.73,5.75,3.23,3.23,0,0,0,3.55,2.5c1.64-.06,2.64-.93,3.07-2.74a19.64,19.64,0,0,0,.55-4.45Z"/><path class="cls-2" d="M15.24,149.65V120a2,2,0,0,1,.35-1.14c.81-1.61,1.17-1.67,2.62-.65a31.85,31.85,0,0,0,10.71,4.42,122.68,122.68,0,0,0,21.32,3.23,215.13,215.13,0,0,0,24.75.44c4.77-.19,9.54-.51,14.28-1.12.52-.06,1-.07,1.57-.1s.33.29.33.6A35,35,0,0,1,90,133c-.88,4-1.66,8.1-2.74,12.1-.87,3.21-1.86,6.38-2.62,9.61-.5,2.15-1.54,4.14-1.79,6.36a149.46,149.46,0,0,1-15.4.7A173.63,173.63,0,0,1,33,158.89,49.2,49.2,0,0,1,20.55,155a13.13,13.13,0,0,1-3.93-2.8A4.52,4.52,0,0,1,15.24,149.65Zm9.45-10.23a1.64,1.64,0,0,0-1.49-1.63,1.55,1.55,0,0,0-1.66,1.55A1.47,1.47,0,0,0,23,141,1.59,1.59,0,0,0,24.69,139.42Z"/><path class="cls-2" d="M157.05,135c-1.25,0-2.51,0-3.76.07-.75,0-1-.22-1-.95,0-1.58,0-3.16-.07-4.74-.06-2.41-1.3-3.72-3.53-3.74a3.54,3.54,0,0,0-3.84,3.76,9.8,9.8,0,0,0,2.88,6.88c2.15,2.43,4.61,4.55,6.93,6.81,2.85,2.77,5.77,5.46,8.43,8.42,5.26,5.86,7.24,12.77,6.8,20.51-.93,1.42-1.43,3.06-2.35,4.49-1.52,2.39-3.71,4.09-5.72,6a48.86,48.86,0,0,1-8.42,6,37.14,37.14,0,0,1-7,3.46,31,31,0,0,1-6.84,1.9c-4.81-1.73-7.59-5.33-9.15-10a37.06,37.06,0,0,1-1.63-12c0-2.47,0-4.94,0-7.41,0-.74.21-1,1-1,4.86,0,9.72,0,14.59,0,.93,0,1,.37,1,1.14,0,3.36,0,6.73,0,10.09a8.88,8.88,0,0,0,.43,2.75,3.52,3.52,0,0,0,3.87,2.78,3.14,3.14,0,0,0,3.42-3.09c.71-5.47,0-10.63-4-14.81s-8-8.14-12.05-12.18-7.34-8.93-8-14.91c-.71-6.66-.08-13.14,4.11-18.76a15.31,15.31,0,0,1,10.5-6c5.66-.82,11.26-.58,16.47,2.13a14.88,14.88,0,0,1,7.73,10.35,1.59,1.59,0,0,0,.16.32c-.17.27-.35.54-.5.81a29,29,0,0,1-6.37,8C159.82,133.27,158.22,133.81,157.05,135Z"/><path class="cls-2" d="M15.23,192.48q0-14.76,0-29.51a3.22,3.22,0,0,1,.69-1.79c1.06-1.52,1.21-1.53,2.72-.54,3.65,2.39,7.77,3.57,12,4.55a144.18,144.18,0,0,0,25.61,3.19,234.15,234.15,0,0,0,23.55-.15c.4.22.39.47.22.88-.51,1.18-1,2.37-1.42,3.58a185.22,185.22,0,0,1-8.24,18.84c-2,4.05-4.18,8-6.36,11.9a2.24,2.24,0,0,0-.3,1.14,138.93,138.93,0,0,1-15.53-.7,111.18,111.18,0,0,1-20.33-3.36A32.75,32.75,0,0,1,19.14,197C17.38,195.94,15.7,194.71,15.23,192.48Zm6.31-12.18c0,1.12.69,1.9,1.58,1.83a1.55,1.55,0,0,0,1.56-1.55A1.57,1.57,0,0,0,23.07,179,1.45,1.45,0,0,0,21.54,180.3Z"/><path class="cls-3" d="M63.64,204.57a2.24,2.24,0,0,1,.3-1.14c2.18-3.94,4.4-7.85,6.36-11.9a185.22,185.22,0,0,0,8.24-18.84c.43-1.21.91-2.4,1.42-3.58.17-.41.18-.66-.22-.88,5.36-.44,10.73-.88,16-1.81a62,62,0,0,0,15.51-4.31,14.86,14.86,0,0,0,3.42-2.07.87.87,0,0,1,1.35.05,3.81,3.81,0,0,1,1.38,3q0,4.74,0,9.49c0,5.83-.13,11.67.06,17.5.1,3.2-1.33,5.22-3.83,6.78-3.88,2.41-8.21,3.6-12.61,4.58a143.93,143.93,0,0,1-23.59,2.94C72.87,204.63,68.26,204.67,63.64,204.57Z"/><path class="cls-2" d="M243.16,194.9q-9.24,0-18.48.06c-.66,0-.86-.26-.82-.87s0-1.05,0-1.58q0-40.06,0-80.14c0-1.07.21-1.45,1.37-1.43,4.7.07,9.41.06,14.11,0,1.07,0,1.41.22,1.41,1.38,0,22.29,0,44.59-.06,66.88,0,1.24.31,1.54,1.53,1.52,4.13-.06,8.27,0,12.4,0a8.21,8.21,0,0,1-.5,1.22,57.75,57.75,0,0,1-5.61,7.51C246.87,191.46,244.72,192.88,243.16,194.9Z"/><path class="cls-3" d="M82.86,161.07c.25-2.22,1.29-4.21,1.79-6.36.76-3.23,1.75-6.4,2.62-9.61,1.08-4,1.86-8.06,2.74-12.1a35,35,0,0,0,1.16-7.36c0-.31.07-.55-.33-.6,3.54-.64,7.11-1.06,10.61-1.92,4.33-1.06,8.63-2.19,12.44-4.65.3-.2.6-.41.88-.64,1.12-.9,1.41-.84,2.16.41a4.13,4.13,0,0,1,.52,2.09q0,14.22,0,28.44A5.53,5.53,0,0,1,115,153a25.21,25.21,0,0,1-8.71,4.16,102.19,102.19,0,0,1-19.78,3.61A21,21,0,0,1,82.86,161.07Z"/><path class="cls-3" d="M98.66,73.19l0-2.13c5.28.79,10.54,1.62,15.48,3.85a5,5,0,0,1,3.34,5.18c-.1,9-.06,17.9,0,26.85a5.81,5.81,0,0,1-2.09,4.57,16.58,16.58,0,0,1-4.85,3,70,70,0,0,1-18.2,4.44c.64-2.58.77-5.23,1.35-7.83.51-2.3.75-4.68,1.09-7,.54-3.62,1.11-7.24,1.57-10.87a85,85,0,0,0,1.11-10.43c2.79-.5,5.61-.81,8.36-1.49a17.78,17.78,0,0,0,5.91-2.14c1.16-.78,1.14-1.69,0-2.51a11.44,11.44,0,0,0-3.32-1.45A75.56,75.56,0,0,0,98.66,73.19Z"/><path class="cls-3" d="M198.39,195.15a4.42,4.42,0,0,1,1.63-1.56,37.77,37.77,0,0,0,9.25-10.52A46,46,0,0,0,215,170.29a2.3,2.3,0,0,1,.76-1.46c.32,7,0,13.89-4.23,19.93-.42.61,0,.74.35,1,1.91,1.22,3.8,2.48,5.74,3.65.68.4.68.7.31,1.31q-2.41,4.16-4.74,8.35c-.39.71-.68.76-1.34.32-3.88-2.59-7.79-5.13-11.67-7.71A2.46,2.46,0,0,0,198.39,195.15Z"/><path class="cls-3" d="M139.55,193.91a31,31,0,0,0,6.84-1.9,37.14,37.14,0,0,0,7-3.46,48.86,48.86,0,0,0,8.42-6c2-1.91,4.2-3.61,5.72-6,.92-1.43,1.42-3.07,2.35-4.49a34,34,0,0,1-3,14.75,14.53,14.53,0,0,1-10.79,8.39,30.77,30.77,0,0,1-16.06-1C139.9,194.11,139.73,194,139.55,193.91Z"/><path class="cls-3" d="M243.16,194.9c1.56-2,3.71-3.44,5.33-5.42A57.75,57.75,0,0,0,254.1,182a8.21,8.21,0,0,0,.5-1.22c3.39-.21,3.39-.21,3.39,3.08s0,6.72,0,10.09c0,.62,0,1.06-.87,1.05C252.48,194.91,247.82,194.91,243.16,194.9Z"/><path class="cls-3" d="M157.05,135c1.17-1.19,2.77-1.73,4.06-2.82a29,29,0,0,0,6.37-8c.15-.27.33-.54.5-.81a37,37,0,0,1,1.49,11c0,.56-.27.66-.75.66Z"/><path class="cls-3" d="M215.78,168.35a.42.42,0,0,1,0-.15s0,0,0-.06A.15.15,0,0,1,215.78,168.35Z"/><path class="cls-4" d="M23.09,96a1.55,1.55,0,0,1-1.64,1.68,1.52,1.52,0,0,1-1.52-1.58,1.6,1.6,0,0,1,1.65-1.58A1.5,1.5,0,0,1,23.09,96Z"/><path class="cls-4" d="M24.69,139.42A1.59,1.59,0,0,1,23,141a1.47,1.47,0,0,1-1.46-1.61,1.55,1.55,0,0,1,1.66-1.55A1.64,1.64,0,0,1,24.69,139.42Z"/><path class="cls-4" d="M21.54,180.3A1.45,1.45,0,0,1,23.07,179a1.57,1.57,0,0,1,1.61,1.61,1.55,1.55,0,0,1-1.56,1.55C22.23,182.2,21.52,181.42,21.54,180.3Z"/></g></g></svg>