<svg xmlns="http://www.w3.org/2000/svg" viewBox="0 0 273 273"><defs><style>.cls-1{fill:#262626;}.cls-2{fill:#529c42;}</style></defs><title>Recurso 14</title><g id="Capa_2" data-name="Capa 2"><g id="Capa_2-2" data-name="Capa 2"><rect class="cls-1" width="273" height="273"/><path class="cls-2" d="M111.53,99.26c0,12.8.14,25.6.16,38.4q0,24.93,0,49.86c0,1.23,0,2.46,0,3.69C111,210.77,96.8,220.75,78,215c-6.55-2-12.29-5.61-18.17-9-3.74-2.14-7.45-4.32-11.22-6.4A18.64,18.64,0,0,1,40.31,191c-.3-.65-.17-2.16-1.73-1.41V85.2c.59.33.94,0,1.1-.49C41.59,79,46,75.92,51,73.08q38.77-22.33,77.41-44.9c.79-.45,2.57-.35,2-2.18h13.32c-.63,1.35.67,1.3,1.27,1.64q39.81,23.1,79.65,46.12c3.94,2.27,7.4,4.88,9.36,9.12.25.53.42,1.57,1.48.84V190.28c-1.51-.54-1.43.9-1.79,1.57a18.14,18.14,0,0,1-7.09,7.31l-82,47.39c-.53.3-1.59.38-.84,1.45H131.82c.42-.86-.32-1-.8-1.29q-14.54-8.49-29.05-17c-1-.6-2.56-1-2.48-2.45s1.79-1.42,2.85-1.88c1.92-.84,4.16-1.21,5.76-2.44,4.27-3.28,7.87-2.35,11.94.53,4.51,3.2,9.49,5.73,14.2,8.67a4.7,4.7,0,0,0,5.46,0q39-22.71,78.05-45.27a5.14,5.14,0,0,0,2.86-5.05q-.09-44.94,0-89.89a5.36,5.36,0,0,0-3-5.34q-38.81-22.27-77.5-44.75c-2.36-1.37-4.14-1.23-6.44.1Q95.14,64.41,56.5,86.58a5.4,5.4,0,0,0-3.12,5.28q.1,44.94,0,89.89a5.34,5.34,0,0,0,3,5.32c6.58,3.65,13,7.49,19.55,11.25a20.7,20.7,0,0,0,5.81,2.36c8.41,1.93,14.49-2.78,14.5-11.39q0-43.83,0-87.67c0-6.09,0-6.26,6.22-6,2.88.12,6.16-1.44,8.63,1.42A1.82,1.82,0,0,0,111.53,99.26Z"/><path class="cls-2" d="M161.43,183.27c-8.57-.11-17-.92-25-4.25-10.7-4.46-16.47-12.46-17.16-24.12-.19-3.2,1.08-4.63,4.25-4.44.62,0,1.24,0,1.85,0,2.58.13,5.35-.69,7.69.4,2.74,1.28,1.78,4.59,2.69,6.91a13.84,13.84,0,0,0,9.69,8.89,64.63,64.63,0,0,0,32.19.26,13.3,13.3,0,0,0,5.55-2.84c5.71-4.87,4.44-13.35-2.52-16-7.81-3-16.11-3.45-24.31-4.39-6.5-.74-13-1.67-19.15-3.9-8.14-2.92-13.85-8-14.87-17.1-1.08-9.7,1.81-17.79,10.13-23.45a35.86,35.86,0,0,1,14-5.43A72.43,72.43,0,0,1,178.38,95c12.65,3.38,19.75,11.89,21.14,24.62.32,3-.6,4.52-3.74,4.39a10.28,10.28,0,0,0-1.84,0c-5.64.73-9.71-.18-11.26-7-1.15-5-5.81-7.5-10.76-8.56a58.52,58.52,0,0,0-23.87-.13,14.5,14.5,0,0,0-6.65,3.07c-5.1,4.35-3.83,11.88,2.46,14,7.28,2.48,14.95,3.09,22.51,4.16,6.84,1,13.67,1.94,20.27,4.08,8.4,2.73,14.84,7.44,16,16.93,1.2,10-1.34,18.61-9.78,24.82-6.58,4.84-14.24,6.61-22.18,7.4C167.6,183.12,164.51,183.13,161.43,183.27Z"/><path class="cls-2" d="M111.53,99.26a1.82,1.82,0,0,1-.39-2.24A2.25,2.25,0,0,1,111.53,99.26Z"/></g></g></svg>