<svg xmlns="http://www.w3.org/2000/svg" viewBox="0 0 273 273"><defs><style>.cls-1{fill:#5d3c7f;}.cls-2{fill:#f1edf4;}.cls-3{fill:#fbfbfc;}</style></defs><title>Recurso 12</title><g id="Capa_2" data-name="Capa 2"><g id="Capa_2-2" data-name="Capa 2"><rect class="cls-1" width="273" height="273"/><path class="cls-2" d="M136.49,190.79q-29,0-58,0c-17.23,0-30-12.78-30-30.06q0-58,0-116c0-17,12.89-30,29.86-30q57.75,0,115.49,0c15.81,0,28,10.15,30.31,25.06a32.73,32.73,0,0,1,.29,5q0,58.12,0,116.27c0,16.9-12.79,29.74-29.73,29.77C175.33,190.82,155.91,190.79,136.49,190.79Zm-.12-174.14v-.06c-19.16,0-38.32,0-57.48,0-16.76,0-28.59,11.92-28.59,28.64q0,43.11,0,86.22c0,10-.09,20,0,30A27.49,27.49,0,0,0,78,189q58.14.06,116.27,0c16.63,0,28.45-11.95,28.46-28.52q0-53.43,0-106.87c0-3.57.1-7.14,0-10.71-.53-14.2-12.27-26-26.46-26.19C176.25,16.49,156.31,16.65,136.37,16.65Z"/><path class="cls-3" d="M68.24,239.1A10.29,10.29,0,0,1,71.32,242a5.89,5.89,0,0,1-4,8.77c-5.22,1.27-10.56.39-15.84.61-1.21,0-1.12-.81-1.12-1.6q0-10.17,0-20.35c0-.83,0-1.57,1.17-1.55,4.26.08,8.53,0,12.78.21,2.76.16,5.34,1.12,6.38,4.11S70.34,237.23,68.24,239.1Zm-8,8.12v-.07a29.12,29.12,0,0,0,3.37,0c1.45-.18,2.73-.75,2.84-2.47a2.6,2.6,0,0,0-2.62-2.94c-2.23-.21-4.48-.16-6.72-.21a1,1,0,0,0-1.13.77c-1,3.17.19,4.94,3.48,4.94ZM60,232c-1,0-1.78.06-2.55,0-1.17-.11-1.7.46-1.46,1.52.29,1.3-1.05,3.35.95,3.79a13.65,13.65,0,0,0,6.47-.16,2.39,2.39,0,0,0,2-2.43,2.51,2.51,0,0,0-2-2.45A11.1,11.1,0,0,0,60,232Z"/><path class="cls-3" d="M208.22,251.13c0,1.21-.07,2.43-.08,3.65,0,3.09-1.5,4.11-4.45,3.19-1-.3-.84-1-.84-1.63,0-7.21,0-14.43,0-21.65,0-1.5,3.41-2.62,4.82-1.29.81.75,1,.6,1.76.25,4.36-2.08,8.77-1.13,11.46,2.39s2.56,9.53-.34,12.86-7.43,3.86-11.65,1.62C208.1,250.05,208.11,250.53,208.22,251.13Zm-.14-8.89c0,3.13,1.83,5.17,4.64,5.19s4.72-2.08,4.72-5.11-2.09-5.47-4.8-5.41S208.07,239.23,208.08,242.24Z"/><path class="cls-2" d="M84.53,232.56c6.09,0,10.18,4,10.13,9.78-.06,5.67-4.17,9.54-10.13,9.52s-10.2-4-10.18-9.77C74.36,236.54,78.62,232.55,84.53,232.56Zm4.61,9.73c0-3.29-1.87-5.36-4.73-5.31-2.69.06-4.55,2.22-4.52,5.28s1.83,5.14,4.61,5.13S89.16,245.36,89.14,242.29Z"/><path class="cls-3" d="M106.62,251.84c-5.9,0-10.12-4-10.13-9.59,0-5.76,4.22-9.73,10.3-9.67,5.93,0,10,4,9.92,9.72S112.61,251.85,106.62,251.84ZM102,242.05c-.07,3.12,1.71,5.27,4.42,5.37a4.77,4.77,0,0,0,4.93-4.95c.09-3.11-1.93-5.54-4.62-5.55S102.06,239,102,242.05Z"/><path class="cls-3" d="M197.8,245v3.13c0,3.14-1.9,4.62-4.53,3-1.27-.77-1.76-.29-2.61.1a7.37,7.37,0,0,1-3,.65c-4,0-6.87-2.17-7-5.46-.09-3.11,2.31-5.26,6.29-5.57a26.16,26.16,0,0,1,3.65,0c2.25.14,2-1,1.24-2.35-1.1-1.88-4-2.34-6.82-.8-1.63.89-2.07.46-2.8-1-.83-1.67-.64-2.4,1.14-3a17.53,17.53,0,0,1,6.64-1c4.94.28,7.45,2.72,7.74,7.66.1,1.56,0,3.13,0,4.69Zm-7.75-1.1c-1.66.17-3.82-.33-4,2.17-.14,1.78,1.32,2.25,2.88,2.22,2,0,3.33-1,3.53-3.07S191,244.1,190.05,243.85Z"/><path class="cls-2" d="M141.63,251.87a17.6,17.6,0,0,1-6.3-.85c-2.43-.83-2.78-2.44-1-4.33.74-.78,1.23-.15,1.82.09a12.16,12.16,0,0,0,6.36.92c.9-.12,1.79-.4,1.82-1.49s-.9-1.2-1.64-1.36c-1.69-.39-3.43-.56-5.1-1-2.43-.68-4.2-2.07-4.29-4.88a5.64,5.64,0,0,1,3.84-5.63,16,16,0,0,1,10.48.17c1.57.52,1.19,1.47.59,2.41s-.36,2.71-2.37,1.57a8.17,8.17,0,0,0-5.84-.58,1.57,1.57,0,0,0-1.47,1.56c0,.89.71,1.19,1.36,1.36,1.34.35,2.71.58,4.08.83,3.73.71,5.53,2.32,5.65,5.08.12,3-1.81,5-5.55,5.84A22.63,22.63,0,0,1,141.63,251.87Z"/><path class="cls-3" d="M156.18,229.13c2.13-.4,3.29-.06,2.88,2.12-.34,1.82.48,2.56,2.3,2.3,1.62-.24,2.44.11,2.43,2.13s-.93,2.18-2.36,2c-2.05-.29-2.6.67-2.41,2.52.12,1.21,0,2.43,0,3.65,0,3.3.35,3.6,3.7,3.45,1.61-.07,1.22,1.36,1.68,2.15s.28,1.42-.62,1.89a6.82,6.82,0,0,1-10-5.72c-.08-2.09,0-4.17-.05-6.26,0-.65.21-1.67-.8-1.59-2.79.2-1.85-1.75-1.94-3.12,0-.43,0-1.09.5-1,2.83.38,2.24-1.61,2.23-3.16C153.71,228,155.57,229.4,156.18,229.13Z"/><path class="cls-3" d="M128,251.87c-4.71,0-6.95-2.12-7.13-6.48-.07-1.65,0-3.31,0-5,0-1.41.47-3-2.07-2.89-1.39,0-.44-1.72-.7-2.63-.22-.73-.13-1.47.94-1.34,2.18.28,2-1.26,1.8-2.51-.3-2.19,1-2.18,2.5-2.05,1.31.11,3.26-.67,2.81,1.94-.39,2.31.73,3,2.77,2.58,1.75-.31,1.93.59,1.94,2.06s-.19,2.42-1.94,2.08c-2.36-.44-3.09.57-2.8,2.84.19,1.46,0,3,0,4.44.08,1.73,1.06,3.12,2.79,2.56,2.58-.84,2.33,1.2,2.68,2.33.53,1.74-1.22,1.52-2.14,1.89A4.38,4.38,0,0,1,128,251.87Z"/><path class="cls-2" d="M167.46,242.16c0-2.17-.06-4.35,0-6.51,0-.86-.57-2.26.65-2.46,1.43-.25,3.36-.92,4.34.41.73,1,.95.81,1.66.33a4.31,4.31,0,0,1,1.39-.69c1-.23,2.44-1.28,3-.24s.28,2.52.19,3.81c-.06.85-.93.54-1.48.64-3.13.59-4.15,1.64-4.33,4.85-.13,2.43-.14,4.87,0,7.3.12,2.69-1.82,1.62-3,1.78-1.4.18-2.57.1-2.44-1.93C167.58,247,167.46,244.59,167.46,242.16Z"/><path class="cls-1" d="M136.37,16.65c19.94,0,39.88-.16,59.82.06,14.19.15,25.93,12,26.46,26.19.14,3.57,0,7.14,0,10.71q0,53.43,0,106.87c0,16.57-11.83,28.49-28.46,28.52q-58.14.08-116.27,0a27.49,27.49,0,0,1-27.64-27.49c-.11-10,0-20,0-30q0-43.11,0-86.22c0-16.72,11.83-28.6,28.59-28.64,19.16,0,38.32,0,57.48,0Zm25.68,83.9,2-1.07c14.85-8,17.44-29.14,4.76-39.73-6.35-5.3-14.07-6.67-22-6.72-15.94-.12-31.88,0-47.82-.09-2.2,0-2.75.64-2.75,2.78q.11,48.73,0,97.48c0,2,.45,2.6,2.56,2.58,14.63-.11,29.27-.08,43.9-.05a64.55,64.55,0,0,0,13.25-1.09c11.9-2.44,23.56-8.35,25.14-24.2C182.34,117.69,177.91,104.36,162.05,100.55Z"/><path class="cls-1" d="M60.26,247.22h-.78c-3.29,0-4.51-1.77-3.48-4.94a1,1,0,0,1,1.13-.77c2.24.05,4.49,0,6.72.21a2.6,2.6,0,0,1,2.62,2.94c-.11,1.72-1.39,2.29-2.84,2.47a29.12,29.12,0,0,1-3.37,0Z"/><path class="cls-1" d="M60,232a11.1,11.1,0,0,1,3.42.26,2.51,2.51,0,0,1,2,2.45,2.39,2.39,0,0,1-2,2.43,13.65,13.65,0,0,1-6.47.16c-2-.44-.66-2.49-.95-3.79-.24-1.06.29-1.63,1.46-1.52C58.26,232.09,59.05,232,60,232Z"/><path class="cls-1" d="M208.08,242.24c0-3,1.92-5.26,4.56-5.33s4.81,2.3,4.8,5.41-1.94,5.13-4.72,5.11S208.08,245.37,208.08,242.24Z"/><path class="cls-1" d="M208.22,251.13c-.11-.6-.12-1.08.69-.61Z"/><path class="cls-1" d="M89.14,242.29c0,3.07-1.83,5.1-4.64,5.1s-4.58-2-4.61-5.13S81.72,237,84.41,237C87.27,236.93,89.12,239,89.14,242.29Z"/><path class="cls-1" d="M102,242.05c.06-3,2-5.15,4.73-5.13s4.71,2.44,4.62,5.55a4.77,4.77,0,0,1-4.93,4.95C103.71,247.32,101.93,245.17,102,242.05Z"/><path class="cls-1" d="M190.05,243.85c.93.25,2.58-.77,2.38,1.32s-1.5,3-3.53,3.07c-1.56,0-3-.44-2.88-2.22C186.23,243.52,188.39,244,190.05,243.85Z"/><path class="cls-3" d="M162.05,100.55c15.86,3.81,20.29,17.14,19,29.89-1.58,15.85-13.24,21.76-25.14,24.2a64.55,64.55,0,0,1-13.25,1.09c-14.63,0-29.27-.06-43.9.05-2.11,0-2.57-.54-2.56-2.58q.11-48.73,0-97.48c0-2.14.55-2.79,2.75-2.78,15.94.09,31.88,0,47.82.09,8,0,15.68,1.42,22,6.72,12.68,10.59,10.09,31.77-4.76,39.73ZM133.12,109c-6.31,0-11.53.07-16.75,0-1.56,0-2.1.29-2.08,2q.13,14,0,28c0,1.52.24,2.15,2,2.14,10.43-.09,20.87,0,31.31-.11A16,16,0,0,0,159,136.44c5.08-5,5.29-11.37,3.37-17.74-1.78-5.91-6.46-8.69-12.3-9.43S138,109.17,133.12,109Zm-1.86-41.2v-.09c-5,0-9.93,0-14.89,0-1.26,0-2.08,0-2.05,1.76q.17,12.38,0,24.74c0,1.6.53,1.86,1.93,1.85,9.31,0,18.63.07,27.94,0,8.61-.09,14.21-5.56,14.45-13.86.28-9.38-3.81-13.81-13.58-14.32C140.49,67.58,135.87,67.78,131.26,67.78Z"/><path class="cls-1" d="M133.12,109c4.91.19,10.93-.46,16.9.29s10.52,3.52,12.3,9.43c1.92,6.37,1.71,12.72-3.37,17.74A16,16,0,0,1,147.59,141c-10.44.08-20.88,0-31.31.11-1.71,0-2-.62-2-2.14q.09-14,0-28c0-1.67.52-2,2.08-2C121.59,109.05,126.81,109,133.12,109Z"/><path class="cls-1" d="M131.26,67.78c4.61,0,9.23-.2,13.83,0,9.77.51,13.86,4.94,13.58,14.32-.24,8.3-5.84,13.77-14.45,13.86-9.31.1-18.63,0-27.94,0-1.4,0-2-.25-1.93-1.85q.12-12.37,0-24.74c0-1.74.79-1.77,2.05-1.76,5,0,9.93,0,14.89,0Z"/></g></g></svg>