<svg xmlns="http://www.w3.org/2000/svg" viewBox="0 0 273 273"><defs><style>.cls-1{fill:#262626;}.cls-2{fill:#eff0ef;}.cls-3{fill:#4d8644;}.cls-4{fill:#fafaf9;}.cls-5{fill:#412f1f;}.cls-6{fill:#739f58;}</style></defs><title>Recurso 16</title><g id="Capa_2" data-name="Capa 2"><g id="Capa_2-2" data-name="Capa 2"><rect class="cls-1" width="273" height="273"/><path class="cls-2" d="M136.5,247.76c-20.35,0-40.7-.06-61.06.06-2.76,0-4.33-.72-5.77-3.2Q39.13,191.94,8.33,139.41a5,5,0,0,1,0-5.88Q39.19,80.84,69.85,28a4.77,4.77,0,0,1,4.78-2.82q61.83.13,123.66,0c2.4,0,3.59.81,4.77,2.84q30.76,53,61.75,105.86a4.4,4.4,0,0,1,0,5.16q-31.05,53-61.91,106.15c-1.25,2.16-2.69,2.6-4.94,2.6C177.46,247.73,157,247.76,136.5,247.76Zm-.3-3.46c20,0,39.94,0,59.91.06a4.82,4.82,0,0,0,4.85-2.77q29.82-51.39,59.85-102.68c1-1.72,1.2-2.94.11-4.81q-30.17-51.43-60.11-103a4.53,4.53,0,0,0-4.51-2.61q-59.9.11-119.81,0a4.24,4.24,0,0,0-4.27,2.4q-30,51.56-60.1,103a4.46,4.46,0,0,0,.07,5.22q30,51.12,59.7,102.36a5.09,5.09,0,0,0,5.18,2.89C96.78,244.26,116.49,244.31,136.2,244.3Z"/><path class="cls-3" d="M136.2,244.31c-19.71,0-39.42-.05-59.13.05a5.09,5.09,0,0,1-5.18-2.89q-29.73-51.25-59.7-102.36a4.46,4.46,0,0,1-.07-5.22q30.14-51.45,60.1-103a4.24,4.24,0,0,1,4.27-2.4q59.91.11,119.81,0a4.53,4.53,0,0,1,4.51,2.61q30,51.57,60.11,103c1.09,1.87.89,3.09-.11,4.81q-30,51.3-59.85,102.68a4.82,4.82,0,0,1-4.85,2.77C176.14,244.26,156.17,244.3,136.2,244.31Zm67.31-46.4-.57-.69c-1.43-1.64-2.91-2.88-1.56-5.72,1.48-3.11-.67-5.79-4.2-6.1-1.91-.17-3.85-.08-5.77-.08-4.31,0-3.1,0-3.13,3.28-.06,5.45,3.14,11.63-2.22,16.45-.48.43.33.82.6,1.2,4.46,1.6,9,1.2,13.43.09,1.12-.28,2.13-1.05,1.67-2.56l0,.06c4.28-1,2.57-3.62,1.6-6Zm-102,8.2c3.15,1.93,6.14,1.63,8.53-1.14,2.22-2.57,3.31-5.51.73-8.61-1.65-3.36-4.18-5-8-4.32a6.63,6.63,0,0,0-5.82,5.8C96.27,201.68,97.77,204.55,101.47,206.11Zm58.39-9c-1.84-4.27-4.08-5.76-7.8-5.12-3.38.58-5.54,2.49-6.16,5.93-.67,3.73.81,6.17,5,8.38,3.27,1.8,6.15,1.06,8.44-1.65C161.28,202.35,162,199.76,159.86,197.1ZM123,195.43c1.48,3.61,2.08,7.12-1.42,10.08a7.49,7.49,0,0,0,6.11.9c.7-.16,2.24-1,1.16-1.75-3.41-2.21-1.44-5.38-1.77-8.07-.31-2.49-1.43-5.07-3.6-4.59-3.4.76-7.12-.86-10.29,1.38a10,10,0,0,1,0,12.08,5.89,5.89,0,0,0,5.44.88c1.21-.46,2.08-1.22.49-2.38,0-1.5.09-3,.07-4.49C119.17,196.89,120.31,195.46,123,195.43Zm21.5,11.44c-1-2.37-3.16-2.82-5.38-3.14.19-1.19,1.5-1.27,2.05-2,1.8-2.52,3.5-5.1,3.63-8.35a18.63,18.63,0,0,0-8-1.3c-5.18,0-7.08,4.22-4.43,8.72,1.16,2,.58,4.64-.29,6.28-2.14,4.06-2.3,4.51,1.92,7.08a8.09,8.09,0,0,0,9.55-1.3C145.08,211.16,146.62,209.24,144.48,206.87Zm-64.79-12c2.16,2.84,1.63,5.88.71,9-.21.71-2.1.67-1,1.9,1.27,1.42,3.09,1.06,4.65.73.77-.16,2.52-.72,1-2.29,0-1.65.16-3.31,0-4.95-.19-2.54.75-3.9,3.4-3.83,1.82,2.42.89,5.15,1,7.78,0,1.09-2.68,1.17-1,2.58a5.25,5.25,0,0,0,5.12.61c.51-.17,1.36-1,.74-1.44-3.43-2.37-1.26-5.95-2-8.87-.49-1.86-1-4-3-3.86-3.6.25-7.1,1.18-10.75,0-.76-.24-2.79,1.47-2.87,1.35-2.09-3.08-3.87-.19-6.08,0,3.1,2.35,3.47,7.61,1.06,12.29a37,37,0,0,0,5.06,0c1.93-.28.45-1.14.12-1.77C76.23,200.56,74.75,196.36,79.69,194.87Zm84.45,11.5c4.91,1.29,9.92,1.5,14.63-.31,6-2.3,8-9.39,4.65-15.09-2.35-4.51-6.33-6-11.11-5.95-1.53,0-3.06.09-4.58.24s-3.89-.85-4.69.59c-1,1.81,1.6,1.55,2.42,2.41a.47.47,0,0,1,.11.36c-.95,5.39,2.58,11.36-2.12,16.3C162.91,205.48,163.51,206.07,164.14,206.37ZM191.66,87.3c-.73-3.77-1.33-7.57-2.22-11.3a16,16,0,0,0-9-11.31c-10-4.92-20.62-7.18-31.6-7.93-16.92-1.16-33.66-.55-50,4.93C89,65,82.59,70.76,81.73,81.59c-.17,2.18-.65,4.33-.83,6.5-2.46,30.27,6.83,55.76,30.49,75.51,7.17,6,15.23,10.47,23.35,14.91,1.57,1.87,3.29,1.36,5.17.45a102.34,102.34,0,0,0,22.86-14.81c11.85-10.29,21.07-22.28,26.13-37.35,3.15-9.38,3.89-19.08,4.2-28.77C193.21,94.61,193.8,90.64,191.66,87.3Z"/><path class="cls-4" d="M134.74,178.51c-8.12-4.44-16.18-8.92-23.35-14.91C87.73,143.85,78.44,118.36,80.9,88.09c.18-2.17.66-4.32.83-6.5C82.59,70.76,89,65,98.84,61.69c16.34-5.48,33.08-6.09,50-4.93,11,.75,21.59,3,31.6,7.93a16,16,0,0,1,9,11.31c.89,3.73,1.49,7.53,2.22,11.3.82,13.85.25,27.63-4.75,40.71-9,23.48-26.27,39.13-48.4,50C137.26,178.61,136,178.42,134.74,178.51Zm5-113.44C125.28,65,111,65.8,97.46,71.81a10.07,10.07,0,0,0-6.26,7.63A81.24,81.24,0,0,0,93,122.1c6.89,21.56,22.18,36,41.64,46.44,1.66.9,2.93.19,4.31-.54a88.41,88.41,0,0,0,30.58-26.06c13.8-18.89,16.07-40.12,11.92-62.48-.76-4.1-3.34-6.49-7.33-8.12C163,66.82,151.49,65.5,139.72,65.07Z"/><path class="cls-2" d="M164.14,206.37c-.63-.3-1.23-.89-.69-1.45,4.7-4.94,1.17-10.91,2.12-16.3a.47.47,0,0,0-.11-.36c-.82-.86-3.43-.6-2.42-2.41.8-1.44,3.08-.43,4.69-.59s3.05-.23,4.58-.24c4.78,0,8.76,1.44,11.11,5.95,2.36,11.32-4.45,15.29-12.74,15.26C168.5,206.22,166.32,206.32,164.14,206.37Zm6-3.07c.29.22.56.58.88.65,4.53,1,7.63-1.1,8.78-5.77,1.33-5.42-1.14-9.59-6.54-11.06-1.37.09-3.74-1-3.75,1.14C169.53,193.26,168.34,198.36,170.17,203.3Z"/><path class="cls-2" d="M75.84,204c.33.63,1.81,1.49-.12,1.77a37,37,0,0,1-5.06,0c2.41-4.68,2-9.94-1.06-12.29,2.21-.14,4-3,6.08,0,.08.12,2.11-1.59,2.87-1.35,3.65,1.18,7.15.25,10.75,0,2-.15,2.51,2,3,3.86.77,2.92-1.4,6.5,2,8.87.62.43-.23,1.27-.74,1.44a5.25,5.25,0,0,1-5.12-.61c-1.68-1.41,1-1.49,1-2.58-.06-2.63.87-5.36-1-7.78-1.42-1.59-3.62-1.41-4.1.06-.91,2.8-1.77,6,.66,8.72,1.49,1.57-.26,2.13-1,2.29-1.56.33-3.38.69-4.65-.73-1.1-1.23.79-1.19,1-1.9.92-3.08,1.45-6.12-.71-9-2.09-1.26-4-.67-4.36,1.53C75,198.84,74.38,201.55,75.84,204Z"/><path class="cls-4" d="M186.66,206.25c-.27-.38-1.08-.77-.6-1.2,5.36-4.82,2.16-11,2.22-16.45,0-3.27-1.18-3.29,3.13-3.28,1.92,0,3.86-.09,5.77.08,3.53.31,5.68,3,4.2,6.1-1.35,2.84.13,4.08,1.56,5.72,0,.36-.08.84.57.69l-.2-.1a9.29,9.29,0,0,1-1.6,6l0-.06C197.13,207.08,191.77,205.92,186.66,206.25Zm5.4-5.82c.15,1-.79,3.77,3,3.73,2.74,0,4.51-1.13,4.51-4,0-3.18-2.19-4.33-5-4.64C191.35,195.19,191.94,197.44,192.06,200.43Zm0-9.66c.39.79-1.14,3.35,2.05,3.26,2-.06,3.93-.56,4-3.09s-1.37-3.72-3.7-4C191.89,186.64,191.81,188.32,192,190.77Z"/><path class="cls-5" d="M134.74,178.51c1.26-.09,2.52.1,3.77-.51,22.13-10.86,39.43-26.51,48.4-50,5-13.08,5.57-26.86,4.75-40.71,2.14,3.34,1.55,7.31,1.44,10.73-.31,9.69-1,19.39-4.2,28.77-5.06,15.07-14.28,27.06-26.13,37.35A102.34,102.34,0,0,1,139.91,179C138,179.87,136.31,180.38,134.74,178.51Z"/><path class="cls-2" d="M139.1,203.73c2.22.32,4.36.77,5.38,3.14-1,5.57-3.26,7.15-10.51,7.24-4.22-2.57-4.06-3-1.92-7.08.87-1.64,1.45-4.3.29-6.28-2.65-4.5-.75-8.7,4.43-8.72a18.63,18.63,0,0,1,8,1.3c-1.46,1.48-2.93,2.76-3.22,5.2-.4,3.22-4.12,2.74-6.25,4.25C136.54,204,137.88,203.59,139.1,203.73Zm-3.77-4.23c1.1,1.07,2.3,1.1,3.17-.1a3.61,3.61,0,0,0-.29-4.8c-1.23-1.58-2.69-1.56-3.69,0S133.33,198.16,135.33,199.5Zm2.19,6.84c-2,.28-4.3.43-4.31,2.88s2.35,2.81,4.27,2.85,4.08-.51,4-3S139.1,206.9,137.52,206.34Z"/><path class="cls-2" d="M119.13,204c1.59,1.16.72,1.92-.49,2.38a5.89,5.89,0,0,1-5.44-.88,10,10,0,0,0,0-12.08c3.17-2.24,6.89-.62,10.29-1.38,2.17-.48,3.29,2.1,3.6,4.59.33,2.69-1.64,5.86,1.77,8.07,1.08.7-.46,1.59-1.16,1.75a7.49,7.49,0,0,1-6.11-.9c3.5-3,2.9-6.47,1.42-10.08-1.86-1.61-3.93-1.5-4.4.85S117.45,201.52,119.13,204Z"/><path class="cls-2" d="M150.92,206.29c-4.21-2.21-5.69-4.65-5-8.38.62-3.44,2.78-5.35,6.16-5.93,3.72-.64,6,.85,7.8,5.12C160.12,203.58,157.74,206,150.92,206.29Zm-.85-4.47a3.21,3.21,0,0,0,4.06,2.46c2.06-.38,2.37-2.15,2.41-3.86.06-2.18,0-4.38-2.1-5.81-.17-.18-.32-.43-.53-.52-1.4-.61-2.9-.68-3.78.65A6.22,6.22,0,0,0,150.07,201.82Z"/><path class="cls-2" d="M101.47,206.11c-3.7-1.56-5.2-4.43-4.59-8.27a6.63,6.63,0,0,1,5.82-5.8c3.85-.72,6.38,1,8,4.32C111.05,203.83,108.59,206.42,101.47,206.11Zm3.94-11.45c-3.26-1.43-4.93-.71-5.35,2.47a6.17,6.17,0,0,0,1.31,5.33,3,3,0,0,0,4.08,1.71c1.68-.62,2.08-2.13,2.11-3.74C107.62,198.23,107.49,196.07,105.41,194.66Z"/><path class="cls-5" d="M164.14,206.37c2.18-.05,4.36-.15,6.54-.14,8.29,0,15.1-3.94,12.74-15.26,3.34,5.7,1.36,12.79-4.65,15.09C174.06,207.87,169.05,207.66,164.14,206.37Z"/><path class="cls-5" d="M139.1,203.73c-1.22-.14-2.56.23-3.79-.95,2.13-1.51,5.85-1,6.25-4.25.29-2.44,1.76-3.72,3.22-5.2-.13,3.25-1.83,5.83-3.63,8.35C140.6,202.46,139.29,202.54,139.1,203.73Z"/><path class="cls-5" d="M101.47,206.11c7.12.31,9.58-2.28,9.26-9.75,2.58,3.1,1.49,6-.73,8.61C107.61,207.74,104.62,208,101.47,206.11Z"/><path class="cls-5" d="M134,214.11c7.25-.09,9.55-1.67,10.51-7.24,2.14,2.37.6,4.29-1,5.94A8.09,8.09,0,0,1,134,214.11Z"/><path class="cls-5" d="M150.92,206.29c6.82-.27,9.2-2.71,8.94-9.19,2.13,2.66,1.42,5.25-.5,7.54C157.07,207.35,154.19,208.09,150.92,206.29Z"/><path class="cls-5" d="M186.66,206.25c5.11-.33,10.47.83,15.1-2.47.46,1.51-.55,2.28-1.67,2.56C195.62,207.45,191.12,207.85,186.66,206.25Z"/><path class="cls-5" d="M85.08,204.17c-2.43-2.72-1.57-5.92-.66-8.72.48-1.47,2.68-1.65,4.1-.06-2.65-.07-3.59,1.29-3.4,3.83C85.24,200.86,85.1,202.52,85.08,204.17Z"/><path class="cls-5" d="M75.84,204c-1.46-2.42-.86-5.13-.51-7.57.32-2.2,2.27-2.79,4.36-1.53C74.75,196.36,76.23,200.56,75.84,204Z"/><path class="cls-5" d="M119.13,204c-1.68-2.44-1-5.24-.55-7.68s2.54-2.46,4.4-.85c-2.67,0-3.81,1.46-3.78,4C119.22,201,119.16,202.46,119.13,204Z"/><path class="cls-5" d="M201.71,203.84a9.29,9.29,0,0,0,1.6-6C204.28,200.22,206,202.83,201.71,203.84Z"/><path class="cls-5" d="M203.51,197.91c-.65.15-.54-.33-.57-.69Z"/><path class="cls-5" d="M139.72,65.07c11.77.43,23.31,1.75,34.35,6.27,4,1.63,6.57,4,7.33,8.12,4.15,22.36,1.88,43.59-11.92,62.48A88.41,88.41,0,0,1,138.9,168c-1.38.73-2.65,1.44-4.31.54C115.13,158.05,99.84,143.66,93,122.1A81.24,81.24,0,0,1,91.2,79.44a10.07,10.07,0,0,1,6.26-7.63C111,65.8,125.28,65,139.72,65.07ZM137,74.81C136,73,135.9,72.9,135.39,73.47,129.76,79.63,124,85.62,120.7,93.58c-7.74,18.9-6.33,38,9.48,52.82,3.65,3.43,5.81,7,5.29,12.09-.15,1.39.27,2.82,1.94,2.71s1.13-1.74,1.13-2.78c0-3.09-.16-6.19,1.16-9.11,13.26-8.91,19.42-27.12,15.43-44.54C152.38,92.73,145,83.62,137,74.81Z"/><path class="cls-3" d="M173.29,187.12c5.4,1.47,7.87,5.64,6.54,11.06-1.15,4.67-4.25,6.73-8.78,5.77-.32-.07-.59-.43-.88-.65,0-3.67.23-7.36,0-11C170,189.66,170.85,188,173.29,187.12Z"/><path class="cls-5" d="M173.29,187.12c-2.44.88-3.28,2.54-3.11,5.17.22,3.65,0,7.34,0,11-1.83-4.94-.64-10-.63-15C169.55,186.09,171.92,187.21,173.29,187.12Z"/><path class="cls-3" d="M192.06,200.43c-.12-3-.71-5.24,2.49-4.88,2.81.31,5,1.46,5,4.64,0,2.84-1.77,3.94-4.51,4C191.27,204.2,192.21,201.41,192.06,200.43Z"/><path class="cls-3" d="M192,190.77c-.22-2.45-.14-4.13,2.4-3.83,2.33.28,3.83,1.5,3.7,4s-2,3-4,3.09C190.89,194.12,192.42,191.56,192,190.77Z"/><path class="cls-3" d="M137.52,206.34c1.58.56,3.94.18,4,2.68s-2,3.09-4,3-4.27-.42-4.27-2.85S135.57,206.62,137.52,206.34Z"/><path class="cls-3" d="M138.21,194.6a3.61,3.61,0,0,1,.29,4.8c-.87,1.2-2.07,1.17-3.17.11C135.4,197.34,134.72,194.75,138.21,194.6Z"/><path class="cls-5" d="M138.21,194.6c-3.49.15-2.81,2.74-2.88,4.91-2-1.35-1.9-3.23-.81-4.92S137,193,138.21,194.6Z"/><path class="cls-3" d="M154.44,194.61c2.09,1.43,2.16,3.63,2.1,5.81,0,1.71-.35,3.48-2.41,3.86a3.21,3.21,0,0,1-4.06-2.46C150.33,198.69,149.3,194.78,154.44,194.61Z"/><path class="cls-5" d="M154.44,194.61c-5.14.17-4.11,4.08-4.37,7.21a6.22,6.22,0,0,1,.06-7.08c.88-1.33,2.38-1.26,3.78-.65C154.12,194.18,154.27,194.43,154.44,194.61Z"/><path class="cls-3" d="M105.41,194.66c2.08,1.41,2.21,3.57,2.15,5.77,0,1.61-.43,3.12-2.11,3.74a3,3,0,0,1-4.08-1.71C101.73,199.35,99.75,195,105.41,194.66Z"/><path class="cls-5" d="M105.41,194.66c-5.66.37-3.68,4.69-4,7.8a6.17,6.17,0,0,1-1.31-5.33C100.48,194,102.15,193.23,105.41,194.66Z"/><path class="cls-6" d="M139.7,149.31c-1.32,2.92-1.15,6-1.16,9.11,0,1,.59,2.66-1.13,2.78s-2.09-1.32-1.94-2.71c.52-5.06-1.64-8.66-5.29-12.09-15.81-14.85-17.22-33.92-9.48-52.82,3.27-8,9.06-14,14.69-20.11.51-.57.58-.5,1.65,1.34q0,33.36,0,66.72C137,144.46,137.62,147.12,139.7,149.31Z"/><path class="cls-3" d="M139.7,149.31c-2.08-2.19-2.69-4.85-2.69-7.78q0-33.36,0-66.72c8,8.81,15.34,17.92,18.09,30C159.12,122.19,153,140.4,139.7,149.31Z"/></g></g></svg>